<svg width="1360" height="463" viewBox="0 0 1360 463" fill="none" xmlns="http://www.w3.org/2000/svg">
<mask id="path-1-inside-1_423_6796" fill="white">
<path d="M1325 0C1344.33 1.80393e-05 1360 15.67 1360 35V428C1360 447.33 1344.33 463 1325 463H35C15.67 463 0 447.33 0 428V35C0 15.67 15.67 2.41598e-07 35 0H144.602C164.89 0 181.263 15.7947 192.593 32.6241C206.96 53.963 231.341 68 259 68H1101C1128.66 68 1153.04 53.963 1167.41 32.6241C1178.74 15.7947 1195.11 0 1215.4 0H1325Z"/>
</mask>
<path d="M1325 0C1344.33 1.80393e-05 1360 15.67 1360 35V428C1360 447.33 1344.33 463 1325 463H35C15.67 463 0 447.33 0 428V35C0 15.67 15.67 2.41598e-07 35 0H144.602C164.89 0 181.263 15.7947 192.593 32.6241C206.96 53.963 231.341 68 259 68H1101C1128.66 68 1153.04 53.963 1167.41 32.6241C1178.74 15.7947 1195.11 0 1215.4 0H1325Z" fill="#191933"/>
<path d="M1325 0V-3V0ZM1325 463V466V463ZM35 463L35 466H35V463ZM35 0V-3V0ZM1167.41 32.6241L1164.92 30.9487L1167.41 32.6241ZM1325 0V3C1342.67 3.00002 1357 17.3269 1357 35H1360H1363C1363 14.0132 1345.99 -2.99998 1325 -3V0ZM1360 35H1357V428H1360H1363V35H1360ZM1360 428H1357C1357 445.673 1342.67 460 1325 460V463V466C1345.99 466 1363 448.987 1363 428H1360ZM1325 463V460H35V463V466H1325V463ZM35 463L35 460C17.3269 460 3 445.673 3 428H0H-3C-3 448.987 14.0132 466 35 466L35 463ZM0 428H3V35H0H-3V428H0ZM0 35H3C3 17.3269 17.3269 3 35 3V0V-3C14.0132 -3 -3 14.0132 -3 35H0ZM35 0V3H144.602V0V-3H35V0ZM192.593 32.6241L190.105 34.2996C205.006 56.4311 230.301 71 259 71V68V65C232.381 65 208.915 51.4948 195.082 30.9486L192.593 32.6241ZM259 68V71H1101V68V65H259V68ZM1101 68V71C1129.7 71 1154.99 56.4311 1169.9 34.2996L1167.41 32.6241L1164.92 30.9487C1151.08 51.4948 1127.62 65 1101 65V68ZM1215.4 0V3H1325V0V-3H1215.4V0ZM1167.41 32.6241L1169.9 34.2996C1181.12 17.6293 1196.71 3 1215.4 3V0V-3C1193.51 -3 1176.36 13.9601 1164.92 30.9487L1167.41 32.6241ZM144.602 0V3C163.292 3 178.881 17.6292 190.105 34.2996L192.593 32.6241L195.082 30.9486C183.644 13.9601 166.488 -3 144.602 -3V0Z" fill="url(#paint0_linear_423_6796)" mask="url(#path-1-inside-1_423_6796)"/>
<defs>
<linearGradient id="paint0_linear_423_6796" x1="0" y1="271" x2="1360" y2="271" gradientUnits="userSpaceOnUse">
<stop stop-color="#4547BB"/>
<stop offset="1" stop-color="#03D75C"/>
</linearGradient>
</defs>
</svg>
