<svg width="300" height="152" viewBox="0 0 300 152" fill="none" xmlns="http://www.w3.org/2000/svg">
<mask id="path-1-inside-1_612_1884" fill="white">
<path d="M11 152C4.92487 152 0 147.075 0 141V11C0 8.53113 2.37799 7 4.84686 7L150 7C159.075 7 167.715 0 176.79 0H289C295.075 0 300 4.92487 300 11V141C300 147.075 295.075 152 289 152L11 152Z"/>
</mask>
<path d="M11 152V154V152ZM289 0L289 -2H289V0ZM300 141L302 141V141H300ZM11 152V150C6.02945 150 2 145.971 2 141H0H-2C-2 148.18 3.82031 154 11 154V152ZM0 141H2V11H0H-2V141H0ZM4.84686 7V9L150 9V7V5L4.84686 5V7ZM176.79 0V2H289V0V-2H176.79V0ZM289 0L289 2C293.971 2 298 6.02943 298 11H300H302C302 3.8203 296.18 -2 289 -2L289 0ZM300 11H298V141H300H302V11H300ZM300 141L298 141C298 145.971 293.971 150 289 150V152V154C296.18 154 302 148.18 302 141L300 141ZM289 152V150L11 150V152V154L289 154V152ZM150 7V9C154.987 9 159.779 7.07933 164.13 5.36006C168.637 3.57933 172.702 2 176.79 2V0V-2C171.804 -2 167.011 -0.0793304 162.66 1.63994C158.153 3.42067 154.088 5 150 5V7ZM0 11H2C2 10.4772 2.22928 10.0328 2.71338 9.66223C3.22937 9.26718 4.00137 9 4.84686 9V7V5C3.22345 5 1.57202 5.49838 0.28183 6.48611C-1.04028 7.49831 -2 9.05394 -2 11H0Z" fill="url(#paint0_linear_612_1884)" mask="url(#path-1-inside-1_612_1884)"/>
<defs>
<linearGradient id="paint0_linear_612_1884" x1="300" y1="75.8446" x2="2.95456e-06" y2="75.8446" gradientUnits="userSpaceOnUse">
<stop stop-color="#4547BB"/>
<stop offset="1" stop-color="#03D75C"/>
</linearGradient>
</defs>
</svg>
