<svg width="300" height="152" viewBox="0 0 300 152" fill="none" xmlns="http://www.w3.org/2000/svg">
<mask id="path-1-inside-1_612_1870" fill="white">
<path d="M289 0C295.075 3.99779e-06 300 4.92487 300 11V141C300 143.469 297.622 145 295.153 145L174 145C164.925 145 156.285 152 147.21 152H11C4.92487 152 0 147.075 0 141L0 11C2.40078e-06 4.92487 4.92487 0 11 0L289 0Z"/>
</mask>
<path d="M289 0V-2V0ZM11 152L11 154H11V152ZM0 11L-2 11V11H0ZM289 0V2C293.971 2 298 6.02944 298 11H300H302C302 3.8203 296.18 -2 289 -2V0ZM300 11H298V141H300H302V11H300ZM295.153 145V143L174 143V145V147L295.153 147V145ZM147.21 152V150H11V152V154H147.21V152ZM11 152L11 150C6.02944 150 2 145.971 2 141H0H-2C-2 148.18 3.8203 154 11 154L11 152ZM0 141H2L2 11H0H-2L-2 141H0ZM0 11L2 11C2 6.02944 6.02944 2 11 2V0V-2C3.8203 -2 -2 3.8203 -2 11L0 11ZM11 0V2L289 2V0V-2L11 -2V0ZM174 145V143C169.013 143 164.221 144.921 159.87 146.64C155.363 148.421 151.298 150 147.21 150V152V154C152.196 154 156.989 152.079 161.34 150.36C165.847 148.579 169.912 147 174 147V145ZM300 141H298C298 141.523 297.771 141.967 297.287 142.338C296.771 142.733 295.999 143 295.153 143V145V147C296.777 147 298.428 146.502 299.718 145.514C301.04 144.502 302 142.946 302 141H300Z" fill="url(#paint0_linear_612_1870)" mask="url(#path-1-inside-1_612_1870)"/>
<defs>
<linearGradient id="paint0_linear_612_1870" x1="-2.95456e-06" y1="76.1554" x2="300" y2="76.1554" gradientUnits="userSpaceOnUse">
<stop stop-color="#4547BB"/>
<stop offset="1" stop-color="#03D75C"/>
</linearGradient>
</defs>
</svg>
