<svg width="107" height="41" viewBox="0 0 107 41" fill="none" xmlns="http://www.w3.org/2000/svg">
<path d="M11.3491 39.9052C12.7643 39.9052 13.9117 38.7578 13.9117 37.3424C13.9117 35.9271 12.7643 34.7798 11.3491 34.7798C9.93363 34.7798 8.78625 35.9271 8.78625 37.3424C8.78625 38.7578 9.93363 39.9052 11.3491 39.9052Z" fill="white" fill-opacity="0.4"/>
<path d="M19.9525 5.12541C21.469 5.12541 22.6982 3.97803 22.6982 2.56269C22.6982 1.14735 21.469 0 19.9525 0C18.436 0 17.2067 1.14735 17.2067 2.56269C17.2067 3.97803 18.436 5.12541 19.9525 5.12541Z" fill="white" fill-opacity="0.4"/>
<path d="M19.9525 13.9114C21.469 13.9114 22.6982 12.6821 22.6982 11.1656C22.6982 9.64923 21.469 8.41992 19.9525 8.41992C18.436 8.41992 17.2067 9.64923 17.2067 11.1656C17.2067 12.6821 18.436 13.9114 19.9525 13.9114Z" fill="white" fill-opacity="0.4"/>
<path d="M19.9525 31.1183C21.469 31.1183 22.6982 29.971 22.6982 28.5557C22.6982 27.1403 21.469 25.9929 19.9525 25.9929C18.436 25.9929 17.2067 27.1403 17.2067 28.5557C17.2067 29.971 18.436 31.1183 19.9525 31.1183Z" fill="white" fill-opacity="0.4"/>
<path d="M19.9525 39.9052C21.469 39.9052 22.6982 38.7578 22.6982 37.3424C22.6982 35.9271 21.469 34.7798 19.9525 34.7798C18.436 34.7798 17.2067 35.9271 17.2067 37.3424C17.2067 38.7578 18.436 39.9052 19.9525 39.9052Z" fill="white" fill-opacity="0.4"/>
<path d="M28.5553 5.12541C29.9708 5.12541 31.1182 3.97803 31.1182 2.56269C31.1182 1.14735 29.9708 0 28.5553 0C27.1401 0 25.9927 1.14735 25.9927 2.56269C25.9927 3.97803 27.1401 5.12541 28.5553 5.12541Z" fill="white" fill-opacity="0.4"/>
<path d="M2.56271 5.12541C3.97806 5.12541 5.12542 3.97805 5.12542 2.56271C5.12542 1.14736 3.97806 0 2.56271 0C1.14736 0 0 1.14736 0 2.56271C0 3.97805 1.14736 5.12541 2.56271 5.12541Z" fill="white"/>
<path d="M2.56271 13.9114C3.97806 13.9114 5.12542 12.6821 5.12542 11.1656C5.12542 9.64926 3.97806 8.41992 2.56271 8.41992C1.14736 8.41992 0 9.64926 0 11.1656C0 12.6821 1.14736 13.9114 2.56271 13.9114Z" fill="white"/>
<path d="M2.56271 22.3324C3.97806 22.3324 5.12542 21.1851 5.12542 19.7696C5.12542 18.3544 3.97806 17.207 2.56271 17.207C1.14736 17.207 0 18.3544 0 19.7696C0 21.1851 1.14736 22.3324 2.56271 22.3324Z" fill="white"/>
<path d="M2.56271 31.1183C3.97806 31.1183 5.12542 29.971 5.12542 28.5557C5.12542 27.1403 3.97806 25.9929 2.56271 25.9929C1.14736 25.9929 0 27.1403 0 28.5557C0 29.971 1.14736 31.1183 2.56271 31.1183Z" fill="white"/>
<path d="M2.56271 39.9052C3.97806 39.9052 5.12542 38.7578 5.12542 37.3424C5.12542 35.9271 3.97806 34.7798 2.56271 34.7798C1.14736 34.7798 0 35.9271 0 37.3424C0 38.7578 1.14736 39.9052 2.56271 39.9052Z" fill="white"/>
<path d="M11.3489 5.12541C12.7643 5.12541 13.9117 3.97805 13.9117 2.5627C13.9117 1.14736 12.7643 0 11.3489 0C9.9336 0 8.78625 1.14736 8.78625 2.5627C8.78625 3.97805 9.9336 5.12541 11.3489 5.12541Z" fill="white"/>
<path d="M11.3489 13.9114C12.7643 13.9114 13.9117 12.6821 13.9117 11.1656C13.9117 9.64926 12.7643 8.41992 11.3489 8.41992C9.9336 8.41992 8.78625 9.64926 8.78625 11.1656C8.78625 12.6821 9.9336 13.9114 11.3489 13.9114Z" fill="white"/>
<path d="M11.3489 22.3324C12.7643 22.3324 13.9117 21.1851 13.9117 19.7696C13.9117 18.3544 12.7643 17.207 11.3489 17.207C9.9336 17.207 8.78625 18.3544 8.78625 19.7696C8.78625 21.1851 9.9336 22.3324 11.3489 22.3324Z" fill="white"/>
<path d="M11.3489 31.1183C12.7643 31.1183 13.9117 29.971 13.9117 28.5557C13.9117 27.1403 12.7643 25.9929 11.3489 25.9929C9.9336 25.9929 8.78625 27.1403 8.78625 28.5557C8.78625 29.971 9.9336 31.1183 11.3489 31.1183Z" fill="white"/>
<path d="M19.9524 22.3324C21.4689 22.3324 22.6982 21.1851 22.6982 19.7696C22.6982 18.3544 21.4689 17.207 19.9524 17.207C18.436 17.207 17.2067 18.3544 17.2067 19.7696C17.2067 21.1851 18.436 22.3324 19.9524 22.3324Z" fill="white"/>
<path d="M28.5554 13.9114C29.9706 13.9114 31.1182 12.6821 31.1182 11.1656C31.1182 9.64926 29.9706 8.41992 28.5554 8.41992C27.14 8.41992 25.9927 9.64926 25.9927 11.1656C25.9927 12.6821 27.14 13.9114 28.5554 13.9114Z" fill="white"/>
<path d="M28.5554 22.3324C29.9706 22.3324 31.1182 21.1851 31.1182 19.7696C31.1182 18.3544 29.9706 17.207 28.5554 17.207C27.14 17.207 25.9927 18.3544 25.9927 19.7696C25.9927 21.1851 27.14 22.3324 28.5554 22.3324Z" fill="white"/>
<path d="M28.5554 31.1183C29.9706 31.1183 31.1182 29.971 31.1182 28.5557C31.1182 27.1403 29.9706 25.9929 28.5554 25.9929C27.14 25.9929 25.9927 27.1403 25.9927 28.5557C25.9927 29.971 27.14 31.1183 28.5554 31.1183Z" fill="white"/>
<path d="M28.5554 39.9052C29.9706 39.9052 31.1182 38.7578 31.1182 37.3424C31.1182 35.9271 29.9706 34.7798 28.5554 34.7798C27.14 34.7798 25.9927 35.9271 25.9927 37.3424C25.9927 38.7578 27.14 39.9052 28.5554 39.9052Z" fill="white"/>
<path d="M37.3417 5.12541C38.7571 5.12541 39.9044 3.97805 39.9044 2.5627C39.9044 1.14736 38.7571 0 37.3417 0C35.9265 0 34.779 1.14736 34.779 2.5627C34.779 3.97805 35.9265 5.12541 37.3417 5.12541Z" fill="white"/>
<path d="M37.3417 13.9114C38.7571 13.9114 39.9044 12.6821 39.9044 11.1656C39.9044 9.64926 38.7571 8.41992 37.3417 8.41992C35.9265 8.41992 34.779 9.64926 34.779 11.1656C34.779 12.6821 35.9265 13.9114 37.3417 13.9114Z" fill="white"/>
<path d="M37.3417 22.3324C38.7571 22.3324 39.9044 21.1851 39.9044 19.7696C39.9044 18.3544 38.7571 17.207 37.3417 17.207C35.9265 17.207 34.779 18.3544 34.779 19.7696C34.779 21.1851 35.9265 22.3324 37.3417 22.3324Z" fill="white"/>
<path d="M37.3417 31.1183C38.7571 31.1183 39.9044 29.971 39.9044 28.5557C39.9044 27.1403 38.7571 25.9929 37.3417 25.9929C35.9265 25.9929 34.779 27.1403 34.779 28.5557C34.779 29.971 35.9265 31.1183 37.3417 31.1183Z" fill="white"/>
<path d="M37.3417 39.9052C38.7571 39.9052 39.9044 38.7578 39.9044 37.3424C39.9044 35.9271 38.7571 34.7798 37.3417 34.7798C35.9265 34.7798 34.779 35.9271 34.779 37.3424C34.779 38.7578 35.9265 39.9052 37.3417 39.9052Z" fill="white"/>
<path d="M48.9969 0.410645H53.7838V7.05985H52.5046V1.59493H50.2806V7.05985H48.9969V0.410645Z" fill="white"/>
<path d="M60.094 4.95796H56.1298C56.187 5.30752 56.3392 5.58626 56.5863 5.79419C56.8364 5.99911 57.1543 6.10157 57.5401 6.10157C58.0011 6.10157 58.3974 5.94035 58.7289 5.61791L59.7685 6.10609C59.5094 6.47373 59.199 6.74645 58.8374 6.92424C58.4757 7.09902 58.0463 7.18641 57.5491 7.18641C56.7777 7.18641 56.1494 6.94383 55.6642 6.45866C55.179 5.97048 54.9364 5.36025 54.9364 4.62798C54.9364 3.87763 55.1775 3.25535 55.6597 2.76114C56.1448 2.26392 56.752 2.01531 57.4813 2.01531C58.2558 2.01531 58.8856 2.26392 59.3707 2.76114C59.8559 3.25535 60.0985 3.90927 60.0985 4.72291L60.094 4.95796ZM58.8554 3.98612C58.7741 3.71189 58.6129 3.4889 58.3718 3.31713C58.1337 3.14536 57.8565 3.05948 57.5401 3.05948C57.1965 3.05948 56.8952 3.15591 56.636 3.34877C56.4733 3.46931 56.3226 3.68176 56.184 3.98612H58.8554Z" fill="white"/>
<path d="M62.3224 2.14188V2.6843C62.5454 2.4613 62.7865 2.29406 63.0457 2.18256C63.3048 2.07106 63.5821 2.01531 63.8774 2.01531C64.5193 2.01531 65.0647 2.2579 65.5137 2.74306C65.9627 3.22823 66.1872 3.85051 66.1872 4.6099C66.1872 5.34217 65.9552 5.95541 65.4911 6.44962C65.027 6.94082 64.4771 7.18641 63.8412 7.18641C63.558 7.18641 63.2943 7.13669 63.0502 7.03725C62.8061 6.93479 62.5635 6.76905 62.3224 6.54002V8.85888H61.0975V2.14188H62.3224ZM63.6197 3.1544C63.231 3.1544 62.9086 3.28699 62.6524 3.55218C62.3963 3.81736 62.2682 4.16391 62.2682 4.59182C62.2682 5.02877 62.3963 5.38286 62.6524 5.65407C62.9086 5.92227 63.231 6.05636 63.6197 6.05636C63.9964 6.05636 64.3128 5.91925 64.569 5.64503C64.8281 5.3708 64.9577 5.02124 64.9577 4.59634C64.9577 4.17446 64.8311 3.82942 64.578 3.56122C64.3249 3.29001 64.0055 3.1544 63.6197 3.1544Z" fill="white"/>
<path d="M72.1358 4.95796H68.1716C68.2288 5.30752 68.381 5.58626 68.6281 5.79419C68.8782 5.99911 69.1962 6.10157 69.5819 6.10157C70.0429 6.10157 70.4392 5.94035 70.7707 5.61791L71.8103 6.10609C71.5512 6.47373 71.2408 6.74645 70.8792 6.92424C70.5176 7.09902 70.0881 7.18641 69.5909 7.18641C68.8195 7.18641 68.1912 6.94383 67.706 6.45866C67.2208 5.97048 66.9782 5.36025 66.9782 4.62798C66.9782 3.87763 67.2193 3.25535 67.7015 2.76114C68.1866 2.26392 68.7939 2.01531 69.5231 2.01531C70.2976 2.01531 70.9274 2.26392 71.4126 2.76114C71.8977 3.25535 72.1403 3.90927 72.1403 4.72291L72.1358 4.95796ZM70.8973 3.98612C70.8159 3.71189 70.6547 3.4889 70.4136 3.31713C70.1755 3.14536 69.8983 3.05948 69.5819 3.05948C69.2383 3.05948 68.937 3.15591 68.6778 3.34877C68.5151 3.46931 68.3644 3.68176 68.2258 3.98612H70.8973Z" fill="white"/>
<path d="M73.7766 7.05985V7.91416H72.6782V6.01568H73.4195L75.1146 2.14188H75.9102L77.6278 6.01568H78.3827V7.91416H77.2075V7.05985H73.7766ZM76.317 6.01568L75.5124 3.94543L74.6807 6.01568H76.317Z" fill="white"/>
<path d="M81.479 2.01531C81.9431 2.01531 82.3786 2.13133 82.7854 2.36337C83.1952 2.5954 83.5146 2.91031 83.7437 3.30809C83.9727 3.70586 84.0872 4.13528 84.0872 4.59634C84.0872 5.06042 83.9712 5.49435 83.7391 5.89816C83.5101 6.30196 83.1967 6.61837 82.7989 6.8474C82.4012 7.07341 81.9627 7.18641 81.4836 7.18641C80.7784 7.18641 80.1757 6.93629 79.6755 6.43606C79.1783 5.93281 78.9296 5.32259 78.9296 4.60538C78.9296 3.83695 79.2114 3.19659 79.7749 2.6843C80.2691 2.23831 80.8372 2.01531 81.479 2.01531ZM81.4971 3.177C81.1144 3.177 80.795 3.3111 80.5388 3.5793C80.2857 3.84448 80.1591 4.185 80.1591 4.60086C80.1591 5.02877 80.2842 5.37532 80.5343 5.64051C80.7874 5.90569 81.1069 6.03828 81.4926 6.03828C81.8783 6.03828 82.1993 5.90418 82.4554 5.63599C82.7115 5.36779 82.8396 5.02275 82.8396 4.60086C82.8396 4.17898 82.7131 3.83695 82.4599 3.57478C82.2098 3.30959 81.8889 3.177 81.4971 3.177Z" fill="white"/>
<path d="M85.0997 7.05985V2.14188H87.075C87.7229 2.14188 88.1629 2.26995 88.3949 2.52609C88.627 2.77923 88.743 3.06701 88.743 3.38945C88.743 3.86859 88.5049 4.21363 88.0288 4.42457C88.6797 4.64757 89.0052 5.06795 89.0052 5.68571C89.0052 6.0202 88.9193 6.29744 88.7475 6.51742C88.5758 6.73439 88.3573 6.87904 88.0921 6.95136C87.8299 7.02369 87.4623 7.05985 86.9892 7.05985H85.0997ZM86.3383 4.07652H86.8129C87.0148 4.07652 87.17 4.0268 87.2785 3.92735C87.3899 3.8249 87.4457 3.71189 87.4457 3.58834C87.4457 3.40452 87.393 3.26138 87.2875 3.15892C87.182 3.05646 87.057 3.00523 86.9123 3.00523L86.7541 3.00975H86.3383V4.07652ZM86.3383 6.11061H86.9575C87.1986 6.11061 87.3674 6.05486 87.4638 5.94336C87.5632 5.82885 87.6129 5.71735 87.6129 5.60887C87.6129 5.44915 87.5572 5.303 87.4457 5.17041C87.3372 5.03781 87.1398 4.97152 86.8536 4.97152H86.3383V6.11061Z" fill="white"/>
<path d="M93.6881 2.14188H94.9176V7.05985H93.6881V6.54002C93.447 6.76905 93.2044 6.93479 92.9603 7.03725C92.7193 7.13669 92.4571 7.18641 92.1738 7.18641C91.538 7.18641 90.988 6.94082 90.524 6.44962C90.0599 5.95541 89.8278 5.34217 89.8278 4.6099C89.8278 3.85051 90.0523 3.22823 90.5014 2.74306C90.9504 2.2579 91.4958 2.01531 92.1377 2.01531C92.433 2.01531 92.7102 2.07106 92.9694 2.18256C93.2285 2.29406 93.4681 2.4613 93.6881 2.6843V2.14188ZM92.3908 3.1544C92.0081 3.1544 91.6902 3.29001 91.437 3.56122C91.1839 3.82942 91.0573 4.17446 91.0573 4.59634C91.0573 5.02124 91.1854 5.3708 91.4416 5.64503C91.7007 5.91925 92.0186 6.05636 92.3953 6.05636C92.7841 6.05636 93.1065 5.92227 93.3626 5.65407C93.6188 5.38286 93.7469 5.02877 93.7469 4.59182C93.7469 4.16391 93.6188 3.81736 93.3626 3.55218C93.1065 3.28699 92.7825 3.1544 92.3908 3.1544Z" fill="white"/>
<path d="M97.0014 5.04384C96.7362 4.95645 96.5177 4.79222 96.346 4.55114C96.1772 4.30705 96.0928 4.03282 96.0928 3.72847C96.0928 3.36384 96.1968 3.04441 96.4047 2.77018C96.6127 2.49596 96.8598 2.32269 97.146 2.25036C97.4353 2.17804 97.8859 2.14188 98.4976 2.14188H99.7452V7.05985H98.5066V5.27889H98.2671L97.0963 7.05985H95.6363L97.0014 5.04384ZM98.5066 4.35225V3.17248H98.0772C97.6101 3.17248 97.3766 3.36836 97.3766 3.76011C97.3766 4.15487 97.6372 4.35225 98.1586 4.35225H98.5066Z" fill="white"/>
<path d="M49.5167 18.0417H48.8613V13.1238H50.0637V16.0122L52.5814 13.1238H53.1736V18.0417H51.9712V15.2121L49.5167 18.0417Z" fill="white"/>
<path d="M55.6597 14.8957H57.4949V13.1238H58.7334V18.0417H57.4949V16.0031H55.6597V18.0417H54.4211V13.1238H55.6597V14.8957Z" fill="white"/>
<path d="M62.4761 16.4597L62.345 16.306L60.8805 18.0417H59.2442L61.4636 15.5195L59.2713 13.1238H60.7765L62.4761 14.9635V13.1238H63.7101V14.9635L65.4052 13.1238H66.915L64.7227 15.5195L66.9421 18.0417H65.3058L63.8412 16.306L63.7101 16.4597V18.0417H62.4761V16.4597Z" fill="white"/>
<path d="M72.3799 15.9399H68.4157C68.4729 16.2894 68.6251 16.5682 68.8722 16.7761C69.1223 16.981 69.4402 17.0835 69.826 17.0835C70.287 17.0835 70.6833 16.9222 71.0148 16.5998L72.0544 17.088C71.7953 17.4556 71.4849 17.7283 71.1233 17.9061C70.7616 18.0809 70.3322 18.1683 69.835 18.1683C69.0636 18.1683 68.4353 17.9257 67.9501 17.4406C67.4649 16.9524 67.2223 16.3422 67.2223 15.6099C67.2223 14.8595 67.4634 14.2372 67.9456 13.743C68.4307 13.2458 69.0379 12.9972 69.7672 12.9972C70.5417 12.9972 71.1715 13.2458 71.6566 13.743C72.1418 14.2372 72.3844 14.8912 72.3844 15.7048L72.3799 15.9399ZM71.1413 14.968C71.06 14.6938 70.8988 14.4708 70.6577 14.299C70.4196 14.1273 70.1424 14.0414 69.826 14.0414C69.4824 14.0414 69.1811 14.1378 68.9219 14.3307C68.7592 14.4512 68.6085 14.6637 68.4699 14.968H71.1413Z" fill="white"/>
<path d="M74.6174 14.8957H76.4526V13.1238H77.6911V18.0417H76.4526V16.0031H74.6174V18.0417H73.3788V13.1238H74.6174V14.8957Z" fill="white"/>
<path d="M83.8702 15.9399H79.906C79.9633 16.2894 80.1154 16.5682 80.3625 16.7761C80.6127 16.981 80.9306 17.0835 81.3163 17.0835C81.7774 17.0835 82.1736 16.9222 82.5051 16.5998L83.5448 17.088C83.2856 17.4556 82.9752 17.7283 82.6136 17.9061C82.252 18.0809 81.8226 18.1683 81.3254 18.1683C80.5539 18.1683 79.9256 17.9257 79.4404 17.4406C78.9553 16.9524 78.7127 16.3422 78.7127 15.6099C78.7127 14.8595 78.9538 14.2372 79.4359 13.743C79.9211 13.2458 80.5283 12.9972 81.2575 12.9972C82.032 12.9972 82.6618 13.2458 83.147 13.743C83.6322 14.2372 83.8747 14.8912 83.8747 15.7048L83.8702 15.9399ZM82.6317 14.968C82.5503 14.6938 82.3891 14.4708 82.148 14.299C81.91 14.1273 81.6327 14.0414 81.3163 14.0414C80.9728 14.0414 80.6714 14.1378 80.4123 14.3307C80.2495 14.4512 80.0989 14.6637 79.9603 14.968H82.6317Z" fill="white"/>
<path d="M86.0987 13.1238V13.6662C86.3217 13.4432 86.5628 13.276 86.8219 13.1645C87.0811 13.053 87.3583 12.9972 87.6536 12.9972C88.2955 12.9972 88.8409 13.2398 89.2899 13.725C89.7389 14.2101 89.9635 14.8324 89.9635 15.5918C89.9635 16.3241 89.7314 16.9373 89.2673 17.4315C88.8033 17.9227 88.2533 18.1683 87.6175 18.1683C87.3342 18.1683 87.0705 18.1186 86.8264 18.0191C86.5823 17.9167 86.3398 17.7509 86.0987 17.5219V19.8408H84.8737V13.1238H86.0987ZM87.396 14.1363C87.0072 14.1363 86.6848 14.2689 86.4287 14.5341C86.1725 14.7993 86.0444 15.1458 86.0444 15.5737C86.0444 16.0107 86.1725 16.3648 86.4287 16.636C86.6848 16.9042 87.0072 17.0383 87.396 17.0383C87.7727 17.0383 88.0891 16.9011 88.3452 16.6269C88.6044 16.3527 88.734 16.0031 88.734 15.5782C88.734 15.1564 88.6074 14.8113 88.3543 14.5431C88.1011 14.2719 87.7817 14.1363 87.396 14.1363Z" fill="white"/>
<path d="M92.219 14.8957H94.0542V13.1238H95.2928V18.0417H94.0542V16.0031H92.219V18.0417H90.9805V13.1238H92.219V14.8957Z" fill="white"/>
<path d="M100.179 13.1238H101.409V18.0417H100.179V17.5219C99.938 17.7509 99.6954 17.9167 99.4513 18.0191C99.2103 18.1186 98.9481 18.1683 98.6648 18.1683C98.029 18.1683 97.479 17.9227 97.015 17.4315C96.5509 16.9373 96.3189 16.3241 96.3189 15.5918C96.3189 14.8324 96.5434 14.2101 96.9924 13.725C97.4414 13.2398 97.9868 12.9972 98.6287 12.9972C98.924 12.9972 99.2012 13.053 99.4604 13.1645C99.7195 13.276 99.9591 13.4432 100.179 13.6662V13.1238ZM98.8818 14.1363C98.4991 14.1363 98.1812 14.2719 97.928 14.5431C97.6749 14.8113 97.5483 15.1564 97.5483 15.5782C97.5483 16.0031 97.6764 16.3527 97.9326 16.6269C98.1917 16.9011 98.5096 17.0383 98.8863 17.0383C99.2751 17.0383 99.5975 16.9042 99.8536 16.636C100.11 16.3648 100.238 16.0107 100.238 15.5737C100.238 15.1458 100.11 14.7993 99.8536 14.5341C99.5975 14.2689 99.2736 14.1363 98.8818 14.1363Z" fill="white"/>
<path d="M103.492 16.0257C103.227 15.9383 103.009 15.7741 102.837 15.533C102.668 15.2889 102.584 15.0147 102.584 14.7104C102.584 14.3457 102.688 14.0263 102.896 13.7521C103.104 13.4779 103.351 13.3046 103.637 13.2323C103.926 13.1599 104.377 13.1238 104.989 13.1238H106.236V18.0417H104.998V16.2608H104.758L103.587 18.0417H102.127L103.492 16.0257ZM104.998 15.3342V14.1544H104.568C104.101 14.1544 103.868 14.3503 103.868 14.742C103.868 15.1368 104.128 15.3342 104.65 15.3342H104.998Z" fill="white"/>
<path d="M55.958 29.0236H48.8613V24.1057H50.0998V27.8394H51.7904V24.1057H53.0289V27.8394H54.724V24.1057H55.958V29.0236Z" fill="white"/>
<path d="M57.2101 24.1057H58.4441V25.9454L60.1437 24.1057H61.6489L59.4566 26.5014L61.6761 29.0236H60.0397L58.5752 27.2879L58.4441 27.4416V29.0236H57.2101V24.1057Z" fill="white"/>
<path d="M64.4921 23.9791C64.9562 23.9791 65.3917 24.0951 65.7985 24.3272C66.2083 24.5592 66.5277 24.8741 66.7568 25.2719C66.9858 25.6697 67.1003 26.0991 67.1003 26.5601C67.1003 27.0242 66.9843 27.4582 66.7522 27.862C66.5232 28.2658 66.2098 28.5822 65.812 28.8112C65.4143 29.0372 64.9758 29.1502 64.4967 29.1502C63.7915 29.1502 63.1888 28.9001 62.6886 28.3999C62.1914 27.8966 61.9427 27.2864 61.9427 26.5692C61.9427 25.8007 62.2245 25.1604 62.788 24.6481C63.2822 24.2021 63.8503 23.9791 64.4921 23.9791ZM64.5102 25.1408C64.1275 25.1408 63.8081 25.2749 63.5519 25.5431C63.2988 25.8083 63.1722 26.1488 63.1722 26.5647C63.1722 26.9926 63.2973 27.3391 63.5474 27.6043C63.8005 27.8695 64.12 28.0021 64.5057 28.0021C64.8914 28.0021 65.2124 27.868 65.4685 27.5998C65.7246 27.3316 65.8527 26.9865 65.8527 26.5647C65.8527 26.1428 65.7261 25.8007 65.473 25.5386C65.2229 25.2734 64.902 25.1408 64.5102 25.1408Z" fill="white"/>
<path d="M72.5064 29.0236H71.2498L70.0203 25.9183L68.7682 29.0236H67.5161L69.6135 24.1057H70.4091L72.5064 29.0236Z" fill="white"/>
<path d="M76.7916 24.1057H78.0211V29.0236H76.7916V28.5038C76.5505 28.7328 76.3079 28.8986 76.0638 29.001C75.8228 29.1005 75.5606 29.1502 75.2773 29.1502C74.6415 29.1502 74.0915 28.9046 73.6275 28.4134C73.1634 27.9192 72.9313 27.306 72.9313 26.5737C72.9313 25.8143 73.1558 25.192 73.6049 24.7069C74.0539 24.2217 74.5993 23.9791 75.2412 23.9791C75.5365 23.9791 75.8137 24.0349 76.0729 24.1464C76.332 24.2579 76.5716 24.4251 76.7916 24.6481V24.1057ZM75.4943 25.1182C75.1116 25.1182 74.7937 25.2538 74.5405 25.525C74.2874 25.7932 74.1608 26.1383 74.1608 26.5601C74.1608 26.985 74.2889 27.3346 74.5451 27.6088C74.8042 27.883 75.1221 28.0202 75.4988 28.0202C75.8876 28.0202 76.21 27.8861 76.4661 27.6179C76.7223 27.3467 76.8504 26.9926 76.8504 26.5556C76.8504 26.1277 76.7223 25.7812 76.4661 25.516C76.21 25.2508 75.886 25.1182 75.4943 25.1182Z" fill="white"/>
<path d="M51.1621 33.3563H52.4413L54.5793 38.8167H55.3207V41H54.0957V40.0055H49.5212V41H48.2963V38.8167H49.0331L51.1621 33.3563ZM51.813 35.1192L50.3575 38.8167H53.264L51.813 35.1192Z" fill="white"/>
<path d="M56.1433 40.0055V33.3563H57.1875C57.7932 33.3563 58.2362 33.3955 58.5164 33.4739C58.9142 33.5793 59.2306 33.7752 59.4657 34.0615C59.7007 34.3478 59.8182 34.6853 59.8182 35.074C59.8182 35.3271 59.764 35.5577 59.6555 35.7656C59.5501 35.9705 59.3768 36.1634 59.1357 36.3442C59.5395 36.534 59.8348 36.7721 60.0217 37.0584C60.2085 37.3416 60.3019 37.6776 60.3019 38.0664C60.3019 38.4401 60.2055 38.7806 60.0126 39.0879C59.8198 39.3953 59.5711 39.6258 59.2668 39.7795C58.9624 39.9302 58.542 40.0055 58.0056 40.0055H56.1433ZM57.409 34.5632V35.9645H57.6847C57.9921 35.9645 58.2196 35.8997 58.3673 35.7701C58.5179 35.6405 58.5933 35.4643 58.5933 35.2413C58.5933 35.0333 58.5225 34.8691 58.3808 34.7486C58.2392 34.625 58.0237 34.5632 57.7344 34.5632H57.409ZM57.409 37.0945V38.7987H57.7254C58.2497 38.7987 58.6023 38.7324 58.7831 38.5998C58.9669 38.4672 59.0589 38.2743 59.0589 38.0212C59.0589 37.7349 58.9519 37.5089 58.7379 37.3432C58.524 37.1774 58.1684 37.0945 57.6712 37.0945H57.409Z" fill="white"/>
<path d="M64.8402 33.3563V34.2152H65.1204C66.7176 34.2152 67.5161 34.8736 67.5161 36.1905C67.5161 36.5642 67.4529 36.8821 67.3263 37.1443C67.2027 37.4034 67.0189 37.6189 66.7748 37.7906C66.5338 37.9594 66.2836 38.0709 66.0245 38.1251C65.7683 38.1764 65.3736 38.202 64.8402 38.202V40.0055H63.5655V38.202C63.008 38.202 62.55 38.1462 62.1914 38.0347C61.8358 37.9232 61.5435 37.7123 61.3144 37.4019C61.0854 37.0885 60.9709 36.6968 60.9709 36.2267C60.9709 35.7837 61.0628 35.41 61.2466 35.1057C61.4305 34.8013 61.6896 34.5768 62.0241 34.4321C62.3616 34.2875 62.8754 34.2152 63.5655 34.2152V33.3563H64.8402ZM63.5655 35.3814H63.2717C62.8287 35.3814 62.5334 35.4537 62.3857 35.5984C62.2381 35.74 62.1642 35.9479 62.1642 36.2221C62.1642 36.5446 62.2531 36.7676 62.4309 36.8911C62.6117 37.0147 62.8754 37.0765 63.222 37.0765H63.5655V35.3814ZM64.8402 35.3814V37.0765H65.256C65.684 37.0765 65.9672 36.9966 66.1058 36.8369C66.2445 36.6772 66.3138 36.4692 66.3138 36.2131C66.3138 35.9509 66.2399 35.7475 66.0923 35.6029C65.9476 35.4552 65.6538 35.3814 65.2108 35.3814H64.8402Z" fill="white"/>
<path d="M70.3503 38.4868L67.9908 33.3563H69.4191L70.9831 37.0629L72.2669 33.3563H73.5687L71.7968 38.1116C71.4924 38.9252 71.1609 39.4707 70.8023 39.7479C70.4467 40.0221 70.067 40.1592 69.6632 40.1592C69.0063 40.1592 68.4006 39.8368 67.8461 39.1919L68.6778 38.3557C69.0093 38.7414 69.3363 38.9343 69.6587 38.9343C69.8034 38.9343 69.9224 38.8996 70.0158 38.8303C70.1092 38.761 70.2207 38.6465 70.3503 38.4868Z" fill="white"/>
</svg>
