<svg width="62" height="42" viewBox="0 0 62 42" fill="none" xmlns="http://www.w3.org/2000/svg">
<g clip-path="url(#clip0_513_719)">
<path d="M61.5353 29.327L61.4232 29.3136C61.497 28.5858 61.199 27.8231 60.5401 27.0469C57.2319 23.1603 45.3388 19.4436 31.6166 18.007C17.8971 16.5704 5.49822 17.7456 1.4655 20.864C0.658957 21.4866 0.213307 22.1739 0.136754 22.9016L0.0246582 22.8908H0.0273923L0.481244 18.5056C0.557797 17.7698 0.992511 17.0771 1.77445 16.4518C5.74975 13.2688 18.2143 12.0613 32.0841 13.514C40.289 14.3738 47.9142 16.0287 53.5573 18.1795C59.2223 20.3357 62.216 22.7399 61.9891 24.9446L61.538 29.3243C61.538 29.3243 61.538 29.327 61.538 29.3297L61.5353 29.327ZM20.3714 17.2901C23.9093 17.2901 27.7151 17.4868 31.6303 17.8965C45.377 19.3358 57.3002 23.0687 60.6276 26.9768C61.0978 27.5293 61.3876 28.0764 61.4997 28.6101L61.8798 24.9311C62.3418 20.4624 48.9696 15.3899 32.0732 13.6218C18.2334 12.1718 5.8017 13.3712 1.84827 16.5354C1.0882 17.1418 0.667159 17.8076 0.59334 18.5164L0.213307 22.1954C0.432031 21.6941 0.828468 21.2197 1.39988 20.7777C4.29798 18.5353 11.4858 17.2901 20.3742 17.2901H20.3714Z" fill="white"/>
<path d="M15.4856 38.7927H15.4254V38.7388L15.42 38.7927C14.4494 38.7199 13.6893 38.4019 13.1644 37.8466L13.0988 37.7766C12.7078 37.3642 12.448 36.8251 12.3305 36.1756C12.2157 35.5449 12.2321 34.8037 12.3797 33.9682C12.5219 33.1515 12.7925 32.2378 13.1808 31.2541C13.5635 30.2784 14.0666 29.2272 14.6763 28.1249C15.9094 25.8878 17.5443 23.4918 19.532 21.0041C21.5907 18.4274 23.9393 15.8642 26.5147 13.3819C29.0929 10.8996 31.7395 8.64906 34.386 6.695C36.9451 4.80564 39.3948 3.26935 41.6668 2.12656C42.7905 1.56326 43.8568 1.10237 44.8383 0.760074C45.8335 0.412388 46.7521 0.183292 47.5696 0.0727868C48.4062 -0.0377182 49.1417 -0.0215468 49.7651 0.121301C50.4076 0.266844 50.9298 0.55254 51.3235 0.964913L51.3891 1.03499C51.914 1.58751 52.1956 2.36374 52.2284 3.34481V3.4068L52.048 3.39333C51.9414 3.38794 51.8293 3.38524 51.7172 3.38524C46.8943 3.38524 37.943 8.7946 29.7026 16.7321C21.2708 24.8556 15.4336 33.8388 15.4801 38.6148L15.4856 38.7954V38.7927ZM48.6086 0.11052C48.2859 0.11052 47.9442 0.134777 47.5833 0.183292C46.774 0.291102 45.8636 0.520197 44.8739 0.865189C43.8951 1.20479 42.8343 1.66298 41.7133 2.22629C39.4468 3.36638 37.0025 4.89997 34.4489 6.78395C31.8078 8.7353 29.1613 10.9831 26.5885 13.4601C24.0158 15.937 21.67 18.4975 19.6167 21.0714C17.6345 23.5538 16.0023 25.9444 14.772 28.1761C14.1678 29.2731 13.6647 30.3215 13.2847 31.2945C12.8992 32.2729 12.6312 33.1785 12.4891 33.987C12.3442 34.8091 12.3278 35.5395 12.4398 36.1567C12.5519 36.7847 12.8007 37.3049 13.178 37.7038L13.2437 37.7739C13.7385 38.294 14.4521 38.5986 15.3653 38.6795V38.666C15.2723 33.8765 21.1341 24.8232 29.6179 16.6512C38.1016 8.47925 47.3372 2.98365 52.0972 3.28552H52.1081C52.0671 2.36105 51.7965 1.63064 51.3016 1.11046L51.236 1.04038C50.8587 0.644179 50.3556 0.371959 49.735 0.229111C49.3932 0.150949 49.0159 0.113215 48.6058 0.113215L48.6086 0.11052Z" fill="white"/>
<path d="M41.2295 35.0356C37.6096 35.0356 33.812 34.8307 29.9242 34.4237C25.7767 33.9898 21.7768 33.3537 18.0339 32.5317C14.4167 31.7366 11.1933 30.804 8.44829 29.761C7.09493 29.2462 5.87281 28.7071 4.81747 28.1573C3.75119 27.6048 2.84349 27.0361 2.1217 26.4701C1.38351 25.8906 0.83123 25.3084 0.478538 24.737C0.112175 24.1441 -0.0436652 23.5592 0.0164838 22.9905L0.02742 22.8935C0.106707 22.1334 0.568761 21.4219 1.39991 20.7777L1.44092 20.7454L1.56669 20.8828H1.56395C4.98425 24.7343 16.8227 28.4079 30.4027 29.8283C43.9827 31.2514 56.3215 30.1059 60.4526 27.0495L60.592 26.9363L60.6331 26.9768C61.3166 27.7799 61.6228 28.5697 61.5435 29.3297L61.5326 29.4267C61.4751 29.9927 61.2017 30.5372 60.7233 31.0385C60.2612 31.5263 59.5996 31.9818 58.7602 32.3942C57.9346 32.7985 56.9312 33.1677 55.7774 33.4885C54.6318 33.8065 53.325 34.0814 51.8978 34.3051C48.997 34.7606 45.6505 35.0032 41.9486 35.0329C41.7107 35.0329 41.4729 35.0356 41.2323 35.0356H41.2295ZM1.41905 20.8936C0.637113 21.5108 0.205133 22.1846 0.131314 22.8989L0.120378 22.9959C0.0656967 23.5376 0.213335 24.1036 0.566027 24.6723C0.910517 25.2329 1.45733 25.807 2.18458 26.3784C2.9009 26.9417 3.80314 27.505 4.86395 28.0549C5.91656 28.602 7.13321 29.1384 8.48383 29.6531C11.2233 30.6962 14.4441 31.6288 18.053 32.4212C21.7904 33.2432 25.7876 33.8793 29.9297 34.3132C34.0718 34.7472 38.11 34.952 41.9404 34.9224C45.6368 34.8927 48.9778 34.6501 51.8704 34.1973C53.2949 33.9736 54.5963 33.7014 55.7391 33.3834C56.8874 33.0653 57.8853 32.6988 58.7028 32.2972C59.5312 31.8902 60.1819 31.4401 60.6358 30.963C61.0978 30.4779 61.3603 29.9577 61.415 29.4133L61.4259 29.3162C61.4998 28.5993 61.2127 27.8473 60.5756 27.0846L60.5565 27.1007C56.4445 30.1976 44.0401 31.3646 30.3836 29.9361C16.7297 28.5077 4.82567 24.7963 1.43545 20.9152L1.41905 20.8963V20.8936Z" fill="white"/>
<path d="M18.9197 41.9999C18.8705 41.9999 18.824 41.9999 18.7775 41.9999C17.6565 41.9757 16.7898 41.6523 16.2075 41.0404L13.1672 37.8439L13.2493 37.7684C13.7551 38.2994 14.4878 38.6066 15.4283 38.6767C20.1336 39.0325 29.3719 33.553 37.8912 25.346C46.4105 17.139 52.2587 8.09106 52.111 3.34474C52.0809 2.39332 51.8103 1.64134 51.3045 1.11038L51.3865 1.03491L54.4268 4.23147C57.5654 7.53315 51.5478 18.4731 41.0108 28.6207C32.6747 36.6499 23.8328 41.9999 18.9197 41.9999ZM13.7742 38.3182L16.2895 40.965C16.85 41.5552 17.6894 41.8679 18.7802 41.8894C18.824 41.8894 18.8677 41.8894 18.9142 41.8894C21.2081 41.8894 24.5709 40.6361 28.4041 38.3452C32.4505 35.9276 36.7839 32.5369 40.9342 28.5399C51.4275 18.4327 57.4424 7.5628 54.3475 4.30424L51.8349 1.6629C52.0755 2.12918 52.2067 2.68979 52.2258 3.33935C52.3762 8.11532 46.5144 17.1956 37.9733 25.4242C29.6973 33.3967 20.7351 38.8007 15.8767 38.8034C15.7208 38.8034 15.5705 38.798 15.4228 38.7872C14.7776 38.7387 14.2253 38.5824 13.7742 38.3182Z" fill="white"/>
<path d="M27.8382 17.8695C29.2228 17.8695 30.3453 16.7388 30.3453 15.344C30.3453 13.9493 29.2228 12.8186 27.8382 12.8186C26.4535 12.8186 25.3311 13.9493 25.3311 15.344C25.3311 16.7388 26.4535 17.8695 27.8382 17.8695Z" fill="white"/>
<path d="M23.871 26.1735V27.5858H22.6516V27.0629H20.8253V27.5858H19.666V26.1735H19.7836C19.9777 26.1708 20.1117 26.0657 20.1855 25.8609C20.2593 25.656 20.3058 25.3676 20.3222 24.9957L20.3632 23.8879H23.3242V26.1762H23.8682L23.871 26.1735ZM21.2682 25.7611C21.2354 25.9336 21.1779 26.0711 21.0905 26.1708H22.2005V24.7693H21.342L21.331 25.0738C21.3201 25.3595 21.2982 25.5886 21.2654 25.7611H21.2682Z" fill="white"/>
<path d="M28.4615 27.0657C28.1826 26.9229 27.9639 26.7234 27.8081 26.4674C27.6522 26.2113 27.5757 25.9229 27.5757 25.5995C27.5757 25.2761 27.6522 24.9877 27.8081 24.7343C27.9639 24.481 28.1826 24.2842 28.4615 24.1414C28.7404 23.9985 29.0575 23.9285 29.413 23.9285C29.7684 23.9285 30.0883 24.0066 30.3535 24.1656C30.6187 24.3247 30.8046 24.543 30.914 24.8206L30.0445 25.2707C29.8996 24.9796 29.6864 24.8341 29.4048 24.8341C29.2024 24.8341 29.0384 24.9015 28.9044 25.0362C28.7732 25.171 28.7076 25.3596 28.7076 25.5995C28.7076 25.8394 28.7732 26.0335 28.9044 26.1709C29.0357 26.3084 29.2024 26.3784 29.4048 26.3784C29.6836 26.3784 29.8969 26.2329 30.0445 25.9418L30.914 26.3919C30.8046 26.6722 30.6159 26.8905 30.3535 27.0469C30.0883 27.2059 29.7766 27.284 29.413 27.284C29.0493 27.284 28.7404 27.2113 28.4615 27.0684V27.0657Z" fill="white"/>
<path d="M34.2933 24.0147V27.1977H33.2953V26.3353H32.7868L32.2181 27.1977H31.0288L31.7369 26.1816C31.5237 26.0873 31.3624 25.9606 31.2503 25.7962C31.1382 25.6345 31.0808 25.4404 31.0808 25.2113C31.0808 24.8313 31.2229 24.5375 31.5073 24.3273C31.7916 24.1171 32.1798 24.012 32.6774 24.012H34.2905L34.2933 24.0147ZM32.2291 25.2518C32.2291 25.3785 32.2673 25.4701 32.3439 25.5267C32.4204 25.586 32.538 25.6156 32.6966 25.6156H33.2926V24.8933H32.702C32.3876 24.8933 32.2291 25.0119 32.2291 25.2518Z" fill="white"/>
<path d="M37.9075 27.1896H39.0804L40.0182 25.5482H40.081V27.1896H41.2211V24.02H40.051L39.1023 25.6857H39.0421V24.02H37.9075V27.1896Z" fill="white"/>
<path d="M52.1411 27.1896H53.314L54.2545 25.5482H54.3147V27.1896H55.4548V24.02H54.2846L53.3386 25.6857H53.2757V24.02H52.1411V27.1896Z" fill="white"/>
<path d="M41.4729 27.1896C41.9951 27.1896 42.911 27.2381 43.0313 26.2571L43.1954 24.9418H43.7968V27.1896H44.9369V24.02H42.2248L42.0607 25.5752C42.0006 26.1573 41.9021 26.3298 41.4729 26.3298V27.1896Z" fill="white"/>
<path d="M48.5949 25.6049C48.5949 24.5915 47.9168 23.9392 46.8834 23.9392C45.8499 23.9392 45.1172 24.5834 45.1172 25.5914C45.1172 26.5994 45.839 27.2678 46.8752 27.2678C47.6708 27.2678 48.3133 26.8986 48.4773 26.3083L47.4958 26.1304C47.4056 26.3326 47.2115 26.4754 46.9381 26.4754C46.5936 26.4754 46.3666 26.2598 46.2901 25.9175H48.584C48.5894 25.8555 48.5949 25.6965 48.5949 25.6049ZM46.2846 25.303C46.3448 24.9526 46.5526 24.7316 46.8615 24.7316C47.1896 24.7316 47.4247 24.9904 47.4493 25.303H46.2846Z" fill="white"/>
<path d="M59.1183 25.6049C59.1183 24.5915 58.4403 23.9392 57.4068 23.9392C56.3734 23.9392 55.6406 24.5834 55.6406 25.5914C55.6406 26.5994 56.3624 27.2678 57.3986 27.2678C58.1942 27.2678 58.8367 26.8986 59.0008 26.3083L58.0192 26.1304C57.929 26.3326 57.7349 26.4754 57.4615 26.4754C57.117 26.4754 56.8901 26.2598 56.8135 25.9175H59.1074C59.1129 25.8555 59.1183 25.6965 59.1183 25.6049ZM56.8081 25.303C56.8682 24.9526 57.076 24.7316 57.3849 24.7316C57.713 24.7316 57.9482 24.9904 57.9728 25.303H56.8081Z" fill="white"/>
<path d="M27.4609 25.6049C27.4609 24.5915 26.7828 23.9392 25.7493 23.9392C24.7159 23.9392 23.9832 24.5834 23.9832 25.5914C23.9832 26.5994 24.7049 27.2678 25.7411 27.2678C26.5368 27.2678 27.1793 26.8986 27.3433 26.3083L26.3618 26.1304C26.2716 26.3326 26.0774 26.4754 25.804 26.4754C25.4595 26.4754 25.2326 26.2598 25.1561 25.9175H27.4499C27.4554 25.8555 27.4609 25.6965 27.4609 25.6049ZM25.1506 25.303C25.2107 24.9526 25.4185 24.7316 25.7275 24.7316C26.0556 24.7316 26.2907 24.9904 26.3153 25.303H25.1506Z" fill="white"/>
<path d="M49.7678 27.1896H50.9079V24.9418H51.8894V24.02H48.7781V24.9418H49.7678V27.1896Z" fill="white"/>
<path d="M35.5344 27.1896H36.6745V24.9418H37.656V24.02H34.5447V24.9418H35.5344V27.1896Z" fill="white"/>
<path d="M20.5298 32.7258H21.7027L22.6432 31.087H22.7034V32.7258H23.8435V29.5588H22.6733L21.7273 31.2218H21.6644V29.5588H20.5298V32.7258Z" fill="white"/>
<path d="M26.1155 32.7824H27.2556V30.5346H28.2371V29.6128H25.1257V30.5346H26.1155V32.7824Z" fill="white"/>
<path d="M31.3976 31.1976C31.3976 30.1842 30.7196 29.532 29.6861 29.532C28.6526 29.532 27.9199 30.1761 27.9199 31.1842C27.9199 32.1922 28.6417 32.8606 29.6779 32.8606C30.4735 32.8606 31.116 32.4914 31.2801 31.9011L30.2985 31.7232C30.2083 31.9254 30.0142 32.0682 29.7408 32.0682C29.3963 32.0682 29.1694 31.8526 29.0928 31.5103H31.3867C31.3922 31.4483 31.3976 31.2893 31.3976 31.1976ZM29.0874 30.8958C29.1475 30.5454 29.3553 30.3244 29.6642 30.3244C29.9923 30.3244 30.2275 30.5831 30.2521 30.8958H29.0874Z" fill="white"/>
<path d="M30.9822 32.7824H32.3027L32.855 31.7986H32.9151L33.4729 32.7824H34.7962L33.7299 31.1356L34.747 29.6128H33.462L32.9151 30.5049H32.855L32.3164 29.6128H31.0232L32.043 31.1356L30.9822 32.7824Z" fill="white"/>
<path d="M34.9109 32.7824H36.0455V31.6531H36.9505V32.7824H38.0906V29.6182H36.9505V30.7313H36.0455V29.6182H34.9109V32.7824Z" fill="white"/>
<path d="M40.0453 29.5347C38.9599 29.5347 38.2737 30.16 38.2737 31.2003C38.2737 32.2407 38.9654 32.866 40.0453 32.866C41.1253 32.866 41.8115 32.2407 41.8115 31.2003C41.8115 30.16 41.1198 29.5347 40.0453 29.5347ZM40.0453 31.8984C39.668 31.8984 39.4138 31.61 39.4138 31.1976C39.4138 30.7853 39.668 30.4969 40.0453 30.4969C40.4226 30.4969 40.6769 30.7853 40.6769 31.1976C40.6769 31.61 40.4172 31.8984 40.0453 31.8984Z" fill="white"/>
<path d="M41.8145 32.7824C42.3367 32.7824 43.2526 32.8309 43.3729 31.8498L43.5369 30.5346H44.1384V32.7824H45.2785V29.6128H42.5663L42.4023 31.1679C42.3421 31.7501 42.2437 31.9226 41.8145 31.9226V32.7824Z" fill="white"/>
<path d="M47.2333 29.5347C46.1479 29.5347 45.4617 30.16 45.4617 31.2003C45.4617 32.2407 46.1534 32.866 47.2333 32.866C48.3133 32.866 48.9995 32.2407 48.9995 31.2003C48.9995 30.16 48.3078 29.5347 47.2333 29.5347ZM47.2333 31.8984C46.856 31.8984 46.6018 31.61 46.6018 31.1976C46.6018 30.7853 46.856 30.4969 47.2333 30.4969C47.6106 30.4969 47.8649 30.7853 47.8649 31.1976C47.8649 31.61 47.6052 31.8984 47.2333 31.8984Z" fill="white"/>
<path d="M49.1826 32.7824H50.3172V30.5346H51.7362V29.6128H49.1826V32.7824Z" fill="white"/>
<path d="M51.9878 32.7824H53.158L54.0985 31.1437H54.1586V32.7824H55.2987V29.6128H54.1286L53.1826 31.2785H53.1224V29.6128H51.9878V32.7824Z" fill="white"/>
<path d="M57.2044 29.1411C57.7676 29.1411 58.175 28.7476 58.175 28.2004H57.4887C57.4887 28.4457 57.3848 28.5939 57.2044 28.5939C57.0239 28.5939 56.9255 28.4457 56.9255 28.2004H56.2393C56.2393 28.7476 56.6466 29.1411 57.2044 29.1411Z" fill="white"/>
<path d="M55.553 32.7824H56.7232L57.6637 31.1437H57.7238V32.7824H58.8639V29.6128H57.6937L56.7478 31.2785H56.6849V29.6128H55.553V32.7824Z" fill="white"/>
<path d="M15.9368 32.7258H17.1069L18.0475 31.087H18.1076V32.7258H19.2477V29.5588H18.0775L17.1315 31.2218H17.0714V29.5588H15.9368V32.7258Z" fill="white"/>
<path d="M2.27466 32.7312H3.40929V31.6019H4.31426V32.7312H5.45436V29.567H4.31426V30.6801H3.40929V29.567H2.27466V32.7312ZM6.72842 32.804C7.1358 32.804 7.51036 32.6503 7.68807 32.3565H7.74822V32.7312H8.88832V30.6478C8.88832 29.9362 8.27589 29.4807 7.34632 29.4807C6.41674 29.4807 5.81252 29.9362 5.81252 30.6424H6.9116C6.9116 30.3728 7.08658 30.2111 7.33538 30.2111C7.59512 30.2111 7.74822 30.3701 7.74822 30.6046V30.7448L7.20141 30.8122C6.17614 30.9523 5.68402 31.2784 5.68402 31.893C5.68402 32.4697 6.10779 32.8013 6.72842 32.8013V32.804ZM7.1686 32.1086C6.91981 32.1086 6.7749 31.9792 6.7749 31.7825C6.7749 31.5992 6.90887 31.4698 7.24242 31.4267L7.74549 31.3539V31.5453C7.74549 31.8714 7.50763 32.1113 7.1686 32.1113V32.1086ZM11.0537 32.7851L12.2102 29.5616H11.0455L10.5014 31.079L9.73587 29.5616H8.50555L10.0284 32.4051L9.44333 34.0411H10.608L11.0564 32.7878L11.0537 32.7851ZM12.2375 32.7312H13.3722V31.459H13.867L14.6872 32.7312H16.0351L14.8513 31.0844L16.016 29.5616H14.6818L13.8698 30.7232H13.3749V29.5616H12.2403V32.7312H12.2375Z" fill="white"/>
<path d="M47.0967 18.0771L48.4911 16.5489L48.4774 15.3333H44.904V13.9022H41.6751C42.9081 13.0046 44.4775 12.2446 44.4501 10.4927C44.3955 7.19369 39.0066 7.39045 39.0477 10.6247H40.8959C40.8822 9.5116 42.5445 9.55473 42.5582 10.6867C42.5636 11.1234 42.2656 11.4737 41.7352 11.8457L39.0449 13.7297L39.0668 15.5732H43.5534L43.5698 16.8319H46.2573L45.0571 18.1553L45.0708 19.3816H45.88C46.5745 19.3816 46.9244 19.6026 46.9299 20.0473C46.9326 20.2764 46.837 20.4516 46.6456 20.5756C46.4515 20.6996 46.189 20.7616 45.8582 20.7616C45.5273 20.7616 45.202 20.713 44.8684 20.6133C44.554 20.5217 44.2697 20.3923 44.0127 20.2252C43.9963 20.2144 43.3702 19.7616 43.3128 19.6835L42.2492 20.8963C42.3531 20.9987 42.8945 21.4111 43.3018 21.6645C43.6409 21.8774 44.0455 22.0364 44.5075 22.1523C44.9805 22.2709 45.4563 22.3275 45.9375 22.3275C46.5936 22.3275 47.1432 22.2224 47.5834 22.0095C48.0263 21.7965 48.3544 21.5189 48.5676 21.1712C48.7809 20.8262 48.8848 20.4489 48.8793 20.0446C48.8738 19.5487 48.718 19.1255 48.4118 18.7752C48.1056 18.4248 47.6681 18.193 47.1022 18.0744L47.0967 18.0771Z" fill="white"/>
<path d="M51.9387 15.3333H48.7454L48.7645 16.8345H50.0304L50.096 22.1953H52.0235L51.9387 15.3333Z" fill="white"/>
<path d="M37.8803 10.4956C37.8256 7.19662 32.4368 7.39338 32.4778 10.6277H34.326C34.3124 9.51453 35.9747 9.55766 35.9884 10.6897C35.9938 11.1263 35.6958 11.4767 35.1654 11.8486L32.4751 13.7326L32.497 15.5761H38.3396V13.9051H35.108C36.341 13.0076 37.9104 12.2475 37.883 10.4956H37.8803Z" fill="white"/>
</g>
<defs>
<clipPath id="clip0_513_719">
<rect width="62" height="42" fill="white"/>
</clipPath>
</defs>
</svg>
