<svg width="81" height="50" viewBox="0 0 81 50" fill="none" xmlns="http://www.w3.org/2000/svg">
<g clip-path="url(#clip0_331_214)">
<path d="M18.4563 34.4066C14.6014 31.9314 8.5471 29.6828 5.037 26.2754L4.88066 26.1265L5.0113 26.0186C5.93596 25.2813 6.90045 24.5961 7.90033 23.9663C12.2842 27.3544 18.0494 29.9029 19.8484 31.0315C21.7351 32.2184 23.3199 33.9081 23.8575 36.5603C24.3372 33.5715 24.4443 30.4252 23.6433 28.4981C22.6496 26.1243 21.1676 24.7928 19.0389 23.6146C17.4476 22.7363 15.5223 21.6422 13.552 20.3776C14.5822 19.6828 15.5994 18.9469 16.5631 18.1528C17.3684 18.5844 18.1586 18.9944 18.9189 19.3763C21.6773 20.7596 23.2021 22.3004 23.8575 24.5986C24.7591 20.328 23.8575 18.224 23.0694 16.9422C22.3568 15.8188 21.4249 14.8533 20.3302 14.1044C21.1869 12.2486 20.2274 9.76042 18.3321 8.9814C18.7048 10.0107 17.8824 11.0358 16.6981 12.0263C15.8414 11.558 14.9334 11.0725 14.0446 10.5761C14.7372 10.0141 15.3819 9.3948 15.9721 8.7246C17.5119 6.93996 16.5781 4.76472 14.6871 4.16049C15.0983 5.41427 13.3764 6.47383 12.4941 7.02196C11.8195 7.43845 11.0506 7.84199 10.2411 8.26711C9.64802 7.86589 9.07614 7.43371 8.52783 6.97233L8.31367 6.78458L8.4186 6.72847C10.2176 5.79623 11.8602 4.58993 12.8539 3.53036C14.0682 2.23558 13.0916 0.23514 11.9287 -0.00439453C12.1043 1.02927 11.0078 1.6184 10.2283 2.01547C9.0825 2.60028 7.61122 3.27788 6.37337 4.23602C6.25558 4.32665 6.14207 4.41729 6.03071 4.51224C5.28578 5.15632 4.80017 6.05255 4.66528 7.03224C4.53038 8.01194 4.75551 9.00753 5.29828 9.83164C5.36681 9.92659 5.43962 10.0215 5.51244 10.1165C5.67948 10.3323 5.85938 10.533 6.05427 10.7401C5.42736 11.1906 4.83529 11.6884 4.28315 12.2291C3.27231 13.2283 2.56987 14.618 2.5356 15.915C2.51418 16.9076 2.66196 17.842 3.55287 19.3677C3.74939 19.7001 3.96387 20.0214 4.19535 20.3302C3.3072 21.0293 2.48426 21.8087 1.73678 22.6586L1.68752 22.7169C-0.52262 25.779 -0.381274 28.3751 1.07074 30.6302C3.51432 34.4196 9.63718 37.2832 14.5629 39.7692C16.9893 41.0014 19.1652 42.3177 20.9235 44.4045C22.2416 45.9569 23.2391 47.7588 23.8575 49.7045C24.4014 46.6833 24.3672 42.6975 23.6155 40.546C22.9152 38.5111 21.4546 36.3294 18.4563 34.4066ZM7.11651 15.5373L6.76742 15.2136C6.83595 15.1705 6.9002 15.1273 6.96873 15.0863C7.67118 14.6741 8.52354 14.1994 9.44015 13.6685C10.209 14.2533 10.9971 14.8058 11.7959 15.3301C10.8665 15.8955 9.89417 16.4825 8.92617 17.0889C8.29439 16.5861 7.69046 16.0703 7.11651 15.5373Z" fill="white"/>
<path d="M40.2622 19.4368V28.0794H41.2388V32.0221H37.7373V30.71H32.5289V32.0221H29.0252V28.0794H29.9097C30.6828 26.5689 30.9163 24.8425 30.9163 22.3328V19.4368H40.2622ZM34.4178 22.0673V23.2887C34.4178 25.1511 34.2165 26.9055 33.5033 28.0794H36.6044V22.0673H34.4178Z" fill="white"/>
<path d="M43.3975 19.4368H48.7301C51.2422 19.4368 53.2425 20.0324 53.2425 22.2702C53.2425 23.429 52.4972 24.2749 51.7841 24.7281C52.9941 25.041 53.6451 26.0898 53.6451 27.3177C53.6451 29.836 51.7391 30.7143 48.8394 30.7143H43.3975V19.4368ZM47.0554 23.9534H48.5759C49.3041 23.9534 49.8309 23.6232 49.8309 22.965C49.8309 22.0889 49.1178 22.0738 48.3318 22.0738H47.0468V23.9534H47.0554ZM47.0554 28.0859H48.653C49.5525 28.0859 50.2357 27.8982 50.2357 27.0522C50.2357 26.0661 49.379 26.0035 48.2183 26.0035H47.0554V28.0859Z" fill="white"/>
<path d="M64.0148 19.4368V20.7316H64.8715C68.1267 20.7316 69.583 22.6414 69.583 24.959C69.583 27.3867 68.1246 29.1541 64.9164 29.1541H64.017V30.7057H60.3569V29.1541H59.4575C56.245 29.1541 54.7909 27.3867 54.7909 24.959C54.7909 22.6414 56.2472 20.7316 59.5024 20.7316H60.3591V19.4368H64.0148ZM60.3569 23.3664H59.8601C58.7293 23.3664 58.2946 23.8822 58.2946 24.9331C58.2946 25.9042 58.7122 26.53 59.6588 26.53H60.3569V23.3664ZM64.0148 26.53H64.713C65.6574 26.53 66.0772 25.9042 66.0772 24.9331C66.0772 23.8822 65.6274 23.3664 64.4945 23.3664H64.0148V26.53Z" fill="white"/>
<path d="M73.5107 19.4368L75.2947 23.8822L77.0615 19.4368H80.9999L76.8838 28.2348C75.9372 30.2547 75.0056 30.9301 73.5964 31.0078C72.7796 31.0297 71.9646 30.9189 71.1828 30.6798V28.0902C71.8381 28.2111 72.2215 28.306 72.6369 28.2478C72.8256 28.2364 73.0073 28.1713 73.1608 28.0602C73.3143 27.9491 73.4334 27.7964 73.5043 27.6198L69.3881 19.4368H73.5107Z" fill="white"/>
<path d="M31.8628 33.7441V36.1028H32.1241V37.3566H31.1668V36.8214H29.7426V37.3566H28.7875V36.1028H29.0273C29.2415 35.6885 29.3036 35.2224 29.3036 34.534V33.7441H31.8628ZM30.2673 34.4606V34.7951C30.2673 35.3044 30.2116 35.7834 30.0168 36.1028H30.8734V34.4606H30.2673Z" fill="white"/>
<path d="M34.452 33.7441L35.5442 36.8214H34.5484L34.4306 36.4157H33.4348L33.3213 36.8214H32.3383L33.4305 33.7441H34.452ZM34.2571 35.7726L33.9338 34.6699L33.6232 35.7726H34.2571Z" fill="white"/>
<path d="M38.9901 33.7441V36.8214H37.9921V34.4606H37.2747V35.3367C37.2747 36.5776 36.8914 36.8861 36.3195 36.8861C36.1362 36.8886 35.9533 36.8668 35.7756 36.8214V36.1028C35.8494 36.1272 35.9271 36.1375 36.0047 36.133C36.2039 36.133 36.3195 36.051 36.3195 35.3281V33.7441H38.9901Z" fill="white"/>
<path d="M40.4764 34.8167H40.9518C41.7228 34.8167 42.2089 35.1662 42.2089 35.8374C42.2089 36.5085 41.7292 36.8214 40.939 36.8214H39.4784V33.7441H40.4764V34.8231V34.8167ZM40.4764 36.1114H40.8447C41.091 36.1114 41.2731 36.0596 41.2731 35.8287C41.2731 35.5612 41.0396 35.5439 40.7227 35.5439H40.4764V36.1114Z" fill="white"/>
<path d="M43.5881 34.8167H44.5326V33.7441H45.5306V36.8214H44.5326V35.5331H43.5881V36.8214H42.588V33.7441H43.5881V34.8167Z" fill="white"/>
<path d="M48.6103 33.7441V34.4606H47.124V34.9008H48.3811V35.6194H47.124V36.1028H48.6702V36.8214H46.1238V33.7441H48.6103Z" fill="white"/>
<path d="M49.1563 33.7441H50.6126C51.2979 33.7441 51.844 33.906 51.844 34.5167C51.8395 34.6534 51.8006 34.7867 51.7309 34.9041C51.6612 35.0215 51.5631 35.1191 51.4457 35.1878C51.5985 35.228 51.7328 35.3202 51.8257 35.4489C51.9186 35.5775 51.9645 35.7346 51.9554 35.8935C51.9554 36.5819 51.4328 36.8214 50.6426 36.8214H49.1563V33.7441ZM50.1543 34.9742H50.5698C50.7689 34.9742 50.9124 34.8836 50.9124 34.7044C50.9124 34.4649 50.7175 34.4606 50.5077 34.4606H50.1543V34.9742ZM50.1543 36.1028H50.5826C50.8289 36.1028 51.0109 36.051 51.0109 35.8201C51.0109 35.5525 50.7775 35.5353 50.4606 35.5353H50.1415V36.1028H50.1543Z" fill="white"/>
<path d="M55.5083 35.2654C55.5083 36.3121 54.808 36.9033 53.9064 36.9033C52.9491 36.9033 52.3109 36.3034 52.3109 35.2568C52.3109 34.29 52.9534 33.6599 53.9064 33.6599C54.9944 33.6599 55.5083 34.4519 55.5083 35.2654ZM53.3089 35.2654C53.3089 35.6582 53.4288 36.1502 53.9064 36.1502C54.3347 36.1502 54.5082 35.7726 54.5082 35.2654C54.5082 34.8468 54.3433 34.413 53.8978 34.413C53.4524 34.413 53.3089 34.877 53.3089 35.2654Z" fill="white"/>
<path d="M58.0697 34.918C58.069 34.8482 58.0542 34.7793 58.026 34.7155C57.9979 34.6516 57.9571 34.5943 57.9061 34.547C57.8551 34.4997 57.7951 34.4634 57.7297 34.4404C57.6643 34.4173 57.5949 34.408 57.5258 34.413C57.1745 34.413 56.9647 34.7173 56.9647 35.3108C56.9647 35.7424 57.0568 36.1502 57.5643 36.1502C57.8856 36.1502 58.0398 35.9236 58.0783 35.628H59.0399C58.9499 36.4243 58.3867 36.9033 57.5815 36.9033C56.5749 36.9033 55.9645 36.2775 55.9645 35.2784C55.9645 34.2792 56.6327 33.6599 57.4851 33.6599C58.4167 33.6599 58.9371 34.1282 59.0185 34.918H58.0697Z" fill="white"/>
<path d="M61.1986 36.8214H60.1985V34.4606H59.3011V33.7441H62.096V34.4606H61.1986V36.8214Z" fill="white"/>
<path d="M65.514 35.2654C65.514 36.3121 64.8158 36.9033 63.9142 36.9033C62.9569 36.9033 62.3165 36.3034 62.3165 35.2568C62.3165 34.29 62.959 33.6599 63.9142 33.6599C65.0021 33.6599 65.514 34.4519 65.514 35.2654ZM63.3167 35.2654C63.3167 35.6582 63.4344 36.1502 63.9142 36.1502C64.3425 36.1502 64.516 35.7726 64.516 35.2654C64.516 34.8468 64.3489 34.413 63.9056 34.413C63.4623 34.413 63.3167 34.877 63.3167 35.2654Z" fill="white"/>
<path d="M66.876 33.7441V34.5383C66.876 34.7821 67.0174 34.8922 67.2573 34.8922C67.4105 34.8965 67.5636 34.8776 67.7113 34.8361V33.7441H68.7093V36.8214H67.7113V35.5763C67.4375 35.639 67.1563 35.6622 66.876 35.6453C66.7477 35.653 66.6192 35.6341 66.4983 35.5898C66.3775 35.5455 66.2669 35.4768 66.1734 35.3879C66.08 35.2989 66.0055 35.1916 65.9547 35.0726C65.9039 34.9536 65.8778 34.8254 65.8781 34.6958V33.7441H66.876Z" fill="white"/>
<path d="M70.3026 34.8167H71.2471V33.7441H72.2472V36.8214H71.2471V35.5331H70.3026V36.8214H69.3025V33.7441H70.3026V34.8167Z" fill="white"/>
<path d="M73.8384 34.8167H74.3138C75.0848 34.8167 75.5731 35.1662 75.5731 35.8374C75.5731 36.5085 75.0934 36.8214 74.301 36.8214H72.8404V33.7441H73.8405V34.8231L73.8384 34.8167ZM73.8384 36.1114H74.2067C74.4509 36.1114 74.6351 36.0596 74.6351 35.8287C74.6351 35.5612 74.4016 35.5439 74.0825 35.5439H73.8341V36.1114H73.8384ZM77.0015 36.83H76.0014V33.7441H77.0015V36.8214V36.83Z" fill="white"/>
<path d="M80.5374 33.7442V36.8215H79.5801V35.8417L79.6315 35.0562L78.5285 36.8215H77.5948V33.7442H78.5499V34.7217L78.5007 35.5094L79.6015 33.7442H80.5374ZM78.6656 32.8616C78.6956 33.1011 78.9226 33.127 79.1175 33.127C79.3809 33.127 79.5072 33.045 79.5458 32.8616H79.8777C79.8606 33.2932 79.5072 33.509 79.1003 33.509C78.657 33.509 78.3722 33.3299 78.3379 32.8616H78.6656Z" fill="white"/>
<path d="M32.3126 38.6687V39.1456H32.6253C33.8203 39.1456 34.3557 39.847 34.3557 40.6994C34.3557 41.5906 33.8203 42.2401 32.6424 42.2401H32.3126V42.8098H30.9677V42.2401H30.6378C29.46 42.2401 28.9246 41.5928 28.9246 40.6994C28.9246 39.847 29.4621 39.1456 30.6571 39.1456H30.9698V38.6687H32.3126ZM30.9677 40.1124H30.7856C30.3701 40.1124 30.2117 40.3023 30.2117 40.6886C30.2117 41.0748 30.3637 41.2734 30.7107 41.2734H30.9677V40.1124ZM32.3126 41.2734H32.5674C32.9144 41.2734 33.0686 41.0446 33.0686 40.6886C33.0686 40.3325 32.9037 40.1124 32.4882 40.1124H32.3126V41.2734Z" fill="white"/>
<path d="M38.187 38.6687V39.6355H36.1867V40.2268H37.8786V41.1935H36.1867V41.8431H38.2662V42.8098H34.8439V38.6687H38.187Z" fill="white"/>
<path d="M42.9264 38.6687V41.8431H43.284V43.4054H41.9991V42.8098H40.0866V43.4054H38.8016V41.8431H39.1272C39.4099 41.2863 39.4955 40.6605 39.4955 39.7326V38.6687H42.9264ZM40.7848 39.6355V40.0843C40.7848 40.7684 40.712 41.4115 40.4485 41.8431H41.5879V39.6355H40.7848Z" fill="white"/>
<path d="M47.231 38.6687V39.6355H45.2329V40.2268H46.9248V41.1935H45.2329V41.8431H47.3124V42.8098H43.8901V38.6687H47.231Z" fill="white"/>
<path d="M49.257 42.8098H47.9078V38.6687H49.8845C51.0624 38.6687 51.632 39.2147 51.632 40.0671C51.632 40.9583 51.1095 41.5215 49.9187 41.5215H49.257V42.8163V42.8098ZM49.257 40.5548H49.8138C50.1286 40.5548 50.3556 40.4296 50.3556 40.0735C50.3556 39.7175 49.9273 39.6419 49.6382 39.6419H49.257V40.5612V40.5548Z" fill="white"/>
<path d="M54.1592 38.6687L55.6283 42.8098H54.2898L54.1292 42.2639H52.7928L52.6386 42.8098H51.3237L52.7928 38.6687H54.1592ZM53.8979 41.4007L53.4696 39.916L53.0541 41.4007H53.8979Z" fill="white"/>
<path d="M60.3398 38.6687V42.8098H58.9949V39.6355H58.0376V40.8137C58.0376 42.4818 57.5193 42.8962 56.7526 42.8962C56.5065 42.9001 56.2609 42.871 56.0223 42.8098V41.8431C56.1215 41.8768 56.2263 41.8907 56.3307 41.8841C56.5984 41.8841 56.7591 41.774 56.7591 40.8051V38.6709L60.3398 38.6687Z" fill="white"/>
<path d="M62.4793 40.1124H63.1218C64.1583 40.1124 64.8137 40.5828 64.8137 41.487C64.8137 42.3912 64.1712 42.8098 63.1004 42.8098H61.1365V38.6687H62.4793V40.1124ZM62.4793 41.8388H62.9762C63.306 41.8388 63.5566 41.7697 63.5566 41.459C63.5566 41.0964 63.2439 41.0748 62.8156 41.0748H62.4793V41.8388Z" fill="white"/>
<path d="M66.7732 40.1124H68.0432V38.6687H69.3881V42.8098H68.0432V41.0792H66.7732V42.8098H65.4283V38.6687H66.7732V40.1124Z" fill="white"/>
<path d="M71.5297 40.1124H72.1722C73.2088 40.1124 73.8641 40.5828 73.8641 41.487C73.8641 42.3912 73.2216 42.8098 72.1508 42.8098H70.187V38.6687H71.5297V40.1124ZM71.5297 41.8388H72.0266C72.3564 41.8388 72.607 41.7697 72.607 41.459C72.607 41.0964 72.2943 41.0748 71.866 41.0748H71.5297V41.8388ZM75.7851 42.8055H74.4402V38.6687H75.7851V42.8098V42.8055Z" fill="white"/>
<path d="M80.5373 38.6686V42.8098H79.2524V41.4934L79.3209 40.4338L77.8389 42.8076H76.5818V38.6686H77.8668V39.985L77.7982 41.0445L79.2781 38.6708L80.5373 38.6686ZM78.0188 37.4839C78.0595 37.8054 78.3679 37.84 78.6292 37.84C78.9825 37.84 79.1539 37.7321 79.1924 37.4839H79.6379C79.6143 38.0752 79.141 38.3643 78.5949 38.3643C77.9974 38.3643 77.6162 38.1226 77.5691 37.4839H78.0188Z" fill="white"/>
<path d="M30.4579 44.8512L31.1625 46.6078L31.8585 44.8512H33.409L31.7793 48.3256C31.4066 49.124 31.0319 49.4197 30.4815 49.4197C30.249 49.4151 30.0191 49.369 29.8026 49.2837V48.2695C29.8961 48.3144 29.9989 48.3358 30.1024 48.332C30.1784 48.3333 30.2528 48.3099 30.3145 48.2652C30.3763 48.2205 30.422 48.1569 30.4451 48.0839L28.8217 44.8469L30.4579 44.8512Z" fill="white"/>
<path d="M35.3515 46.4027H36.7157V44.8511H38.1613V49.303H36.7157V47.4406H35.3515V49.303H33.9059V44.8511H35.3515V46.4027Z" fill="white"/>
<path d="M43.2755 44.8511V49.303H41.8898V47.8873L41.9648 46.7479L40.3714 49.303H39.0179V44.8511H40.4036V46.2667L40.3286 47.404L41.922 44.8511H43.2755Z" fill="white"/>
<path d="M44.1321 44.8511H46.2395C47.2311 44.8511 48.0213 45.0863 48.0213 45.9711C48.0143 46.1684 47.9578 46.3608 47.857 46.5302C47.7563 46.6997 47.6146 46.8406 47.4452 46.94C47.6658 46.9984 47.8596 47.132 47.9935 47.3181C48.1274 47.5042 48.1932 47.7313 48.1798 47.9607C48.1798 48.9577 47.4259 49.303 46.2802 49.303H44.1386V44.8511H44.1321ZM45.5777 46.6314H46.1774C46.4644 46.6314 46.6742 46.5019 46.6742 46.243C46.6742 45.8955 46.3915 45.8891 46.0853 45.8891H45.5777V46.6314ZM45.5777 48.265H46.2074C46.5629 48.265 46.8327 48.1895 46.8327 47.8571C46.8327 47.4665 46.4965 47.4406 46.036 47.4406H45.5777V48.265Z" fill="white"/>
<path d="M52.478 44.8511V45.8891H50.3299V46.5257H52.1482V47.5658H50.3299V48.265H52.5636V49.303H48.8843V44.8511H52.478Z" fill="white"/>
<path d="M54.7138 49.303H53.2682V44.8511H55.3949C56.6606 44.8511 57.2731 45.438 57.2731 46.3617C57.2731 47.3198 56.7098 47.9262 55.4441 47.9262H54.7138V49.3116V49.303ZM54.7138 46.8796H55.3135C55.6519 46.8796 55.896 46.7436 55.896 46.3595C55.896 45.9754 55.4313 45.8891 55.125 45.8891H54.7138V46.8796Z" fill="white"/>
<path d="M60.796 46.5518C60.7951 46.4511 60.7737 46.3516 60.7332 46.2596C60.6927 46.1675 60.6339 46.0847 60.5605 46.0164C60.4871 45.9481 60.4005 45.8956 60.3062 45.8623C60.2119 45.8289 60.1118 45.8153 60.0121 45.8224C59.5024 45.8224 59.1962 46.254 59.1962 47.1172C59.1962 47.743 59.3311 48.33 60.0678 48.33C60.5326 48.33 60.751 48.002 60.8067 47.5747H62.1966C62.0681 48.727 61.2543 49.4176 60.0914 49.4176C58.6329 49.4176 57.7527 48.5156 57.7527 47.0676C57.7527 45.6196 58.7186 44.7305 59.95 44.7305C61.2971 44.7305 62.051 45.4059 62.1666 46.5496L60.796 46.5518Z" fill="white"/>
<path d="M67.0645 44.8511V49.303H65.681V47.8873L65.7559 46.7479L64.1626 49.303H62.8112V44.8511H64.1947V46.2667L64.1197 47.404L65.7131 44.8511H67.0645Z" fill="white"/>
<path d="M70.4289 49.303H68.9834V45.8891H67.6855V44.8511H71.7268V45.8891H70.4289V49.303Z" fill="white"/>
<path d="M75.9393 44.8511V45.8891H73.7913V46.5257H75.6095V47.5658H73.7913V48.265H76.025V49.303H72.3457V44.8511H75.9393Z" fill="white"/>
<path d="M79.2353 49.303H77.7897V45.8891H76.4919V44.8511H80.5331V45.8891H79.2353V49.303Z" fill="white"/>
</g>
<defs>
<clipPath id="clip0_331_214">
<rect width="81" height="49.7045" fill="white"/>
</clipPath>
</defs>
</svg>
