<svg width="204" height="216" viewBox="0 0 204 216" fill="none" xmlns="http://www.w3.org/2000/svg">
<circle cx="90.5" cy="90.5" r="90" stroke="url(#paint0_linear_199_34)"/>
<circle cx="90.5" cy="90.5" r="80.5" fill="url(#paint1_linear_199_34)"/>
<g filter="url(#filter0_i_199_34)">
<circle cx="90.5" cy="90.5" r="71.5" fill="url(#paint2_linear_199_34)"/>
</g>
<path d="M138 166.5C134.796 162.655 128.5 162 125.5 163C110.147 168.118 164.573 119.712 158 134.5C156 139 156.206 143.658 159 147.5C160.976 150.217 164 151.5 168 152C180.631 153.579 141 187.571 141 175C141 171.5 140.136 169.063 138 166.5Z" fill="url(#paint3_linear_199_34)"/>
<circle cx="172" cy="184" r="32" fill="url(#paint4_linear_199_34)"/>
<circle cx="172" cy="184" r="24" fill="#1E162A"/>
<path d="M169 177L176 183.5L169 190.5" stroke="white"/>
<defs>
<filter id="filter0_i_199_34" x="19" y="19" width="143" height="143" filterUnits="userSpaceOnUse" color-interpolation-filters="sRGB">
<feFlood flood-opacity="0" result="BackgroundImageFix"/>
<feBlend mode="normal" in="SourceGraphic" in2="BackgroundImageFix" result="shape"/>
<feColorMatrix in="SourceAlpha" type="matrix" values="0 0 0 0 0 0 0 0 0 0 0 0 0 0 0 0 0 0 127 0" result="hardAlpha"/>
<feMorphology radius="1" operator="erode" in="SourceAlpha" result="effect1_innerShadow_199_34"/>
<feOffset/>
<feGaussianBlur stdDeviation="10"/>
<feComposite in2="hardAlpha" operator="arithmetic" k2="-1" k3="1"/>
<feColorMatrix type="matrix" values="0 0 0 0 0 0 0 0 0 0 0 0 0 0 0 0 0 0 0.1 0"/>
<feBlend mode="normal" in2="shape" result="effect1_innerShadow_199_34"/>
</filter>
<linearGradient id="paint0_linear_199_34" x1="22.5" y1="22" x2="152" y2="162.5" gradientUnits="userSpaceOnUse">
<stop stop-color="#4D529D"/>
<stop offset="1" stop-color="#1B2B2B"/>
</linearGradient>
<linearGradient id="paint1_linear_199_34" x1="29" y1="30.5" x2="147.5" y2="152.5" gradientUnits="userSpaceOnUse">
<stop stop-color="#433F81"/>
<stop offset="1" stop-color="#362F5F"/>
</linearGradient>
<linearGradient id="paint2_linear_199_34" x1="46.5" y1="35" x2="137" y2="145.5" gradientUnits="userSpaceOnUse">
<stop stop-color="#3D3872"/>
<stop offset="1" stop-color="#342D5B"/>
</linearGradient>
<linearGradient id="paint3_linear_199_34" x1="143.5" y1="147.5" x2="155.5" y2="163.5" gradientUnits="userSpaceOnUse">
<stop stop-color="#362F60"/>
<stop offset="1" stop-color="#352D5C"/>
</linearGradient>
<linearGradient id="paint4_linear_199_34" x1="147.553" y1="160.149" x2="194.658" y2="208.646" gradientUnits="userSpaceOnUse">
<stop stop-color="#352E5D"/>
<stop offset="1" stop-color="#30284F"/>
</linearGradient>
</defs>
</svg>
