<svg width="670" height="346" viewBox="0 0 670 346" fill="none" xmlns="http://www.w3.org/2000/svg">
<path d="M640 0C656.569 8.05325e-06 670 13.4315 670 30V272C670 287.222 657.853 299.608 642.723 299.991L642 300H517C497.434 300 480.172 309.858 469.907 324.878C462.469 335.762 451.74 345.685 438.632 345.992L438.006 346H30C13.4315 346 0 332.569 0 316V30C1.03088e-06 13.4315 13.4315 0 30 0H640ZM30 5C16.4087 5 5.35019 15.8457 5.00781 29.3545L5 30V295.497L512 295H642C654.703 295 665 284.703 665 272V30C665 16.4087 654.154 5.35019 640.646 5.00781L640 5H30Z" fill="url(#paint0_linear_444_925)"/>
<defs>
<linearGradient id="paint0_linear_444_925" x1="670" y1="173" x2="4.99998" y2="173" gradientUnits="userSpaceOnUse">
<stop stop-color="#03D75C"/>
<stop offset="1" stop-color="#4547BB"/>
</linearGradient>
</defs>
</svg>
