<svg width="300" height="175" viewBox="0 0 300 175" fill="none" xmlns="http://www.w3.org/2000/svg">
<path d="M285 0C293.284 1.93277e-06 300 6.71573 300 15V160C300 162.959 297.281 164.877 294.334 164.994L294.049 165H183C177.959 165 173.181 166.131 168.908 168.152C162.072 171.387 155.072 175 147.509 175H15C6.71573 175 2.21478e-07 168.284 0 160V15C0 6.71573 6.71573 1.20798e-07 15 0H285ZM15 1C7.26801 1 1 7.26801 1 15V160C1 167.732 7.26802 174 15 174H147.509C154.797 174 161.568 170.52 168.48 167.249C172.885 165.165 177.807 164 183 164H294.049C296.79 164 299 162.29 299 160V15C299 7.38882 292.926 1.19654 285.361 1.00488L285 1H15Z" fill="url(#paint0_linear_621_2017)"/>
<defs>
<linearGradient id="paint0_linear_621_2017" x1="381" y1="102.674" x2="2.84327" y2="102.674" gradientUnits="userSpaceOnUse">
<stop stop-color="#03D75C"/>
<stop offset="1" stop-color="#4547BB"/>
</linearGradient>
</defs>
</svg>
