<svg width="1360" height="524" viewBox="0 0 1360 524" fill="none" xmlns="http://www.w3.org/2000/svg">
<path d="M1330 0C1346.57 1.54622e-05 1360 13.4315 1360 30V494C1360 510.569 1346.57 524 1330 524H30C13.4315 524 0 510.569 0 494V101.841C0 76.988 20.1472 56.8408 45 56.8408H762C787.568 56.8408 810.529 45.6827 826.281 27.9707L827.026 27.1221C839.447 12.7832 855.574 2.74203e-05 874.545 0H1330ZM5 144V494C5 507.807 16.1929 519 30 519H408V144H5ZM412 144V519H737V144H412ZM741 144V519H1032V144H741ZM1036 144V519H1330C1343.81 519 1355 507.807 1355 494V144H1036ZM41.4385 62C21.0156 63.8021 5 80.9498 5 101.841V140H408V62H41.4385ZM412 140H737V62H412V140ZM741 140H1032V62H741V140ZM1036 140H1355V62H1036V140Z" fill="url(#paint0_linear_604_954)"/>
<defs>
<linearGradient id="paint0_linear_604_954" x1="0" y1="262" x2="1360" y2="262" gradientUnits="userSpaceOnUse">
<stop stop-color="#4547BB"/>
<stop offset="1" stop-color="#03D75C"/>
</linearGradient>
</defs>
</svg>
