<svg width="670" height="346" viewBox="0 0 670 346" fill="none" xmlns="http://www.w3.org/2000/svg">
<path d="M30 346C13.4315 346 0 332.569 0 316V74C0 58.7776 12.1473 46.3921 27.2773 46.0088L28 46H153C172.566 46 189.828 36.1421 200.093 21.1221C207.531 10.2377 218.26 0.315277 231.368 0.0078125L231.994 0H640C656.569 0 670 13.4315 670 30V316C670 332.569 656.569 346 640 346H30ZM640 341C653.591 341 664.65 330.154 664.992 316.646L665 316V50.5029L158 51H28C15.2974 51 5 61.2975 5 74V316C5 329.591 15.8457 340.65 29.3545 340.992L30 341H640Z" fill="url(#paint0_linear_444_934)"/>
<defs>
<linearGradient id="paint0_linear_444_934" x1="5.39134e-07" y1="173" x2="665" y2="173" gradientUnits="userSpaceOnUse">
<stop stop-color="#03D75C"/>
<stop offset="1" stop-color="#4547BB"/>
</linearGradient>
</defs>
</svg>
