<svg width="300" height="327" viewBox="0 0 300 327" fill="none" xmlns="http://www.w3.org/2000/svg">
<path d="M268 0.0546875C285.673 0.0546903 300 14.3816 300 32.0547V294.863C300 296.284 298.876 297.395 297.486 297.528L297.205 297.542H217.679C205.392 297.542 194.184 302.158 185.694 309.751L183.88 311.355C174.878 319.223 164.638 326.613 152.838 326.857L152.237 326.863H32C14.3269 326.863 3.34545e-05 312.536 0 294.863V32.0547C4.00025e-08 30.5391 1.27932 29.3761 2.79492 29.376H72.6885C84.591 29.376 95.482 25.0438 103.87 17.8701L104.674 17.167C114.108 8.73007 124.93 0.321137 137.53 0.0605469L138.132 0.0546875H268ZM2.79492 31.376C2.33707 31.3761 2.07197 31.6643 2.0127 31.9385L2 32.0547V294.863C2 295.737 2.04006 296.602 2.11328 297.457V294.665L297.359 295.513L295.947 295.542H297.205C297.663 295.542 297.928 295.254 297.987 294.979L298 294.863V32.1445L30.041 31.376H2.79492Z" fill="url(#paint0_linear_621_1871)"/>
<defs>
<linearGradient id="paint0_linear_621_1871" x1="-5.52883e-07" y1="163.764" x2="300" y2="163.764" gradientUnits="userSpaceOnUse">
<stop stop-color="#4547BB"/>
<stop offset="1" stop-color="#03D75C"/>
</linearGradient>
</defs>
</svg>
