<svg width="300" height="374" viewBox="0 0 300 374" fill="none" xmlns="http://www.w3.org/2000/svg">
<path d="M290.515 0.0126953C290.852 0.0298142 291.186 0.0634715 291.514 0.113281C291.545 0.118097 291.577 0.12477 291.608 0.129883C291.741 0.151331 291.873 0.173584 292.004 0.200195C292.039 0.207329 292.073 0.21711 292.108 0.224609C292.233 0.25132 292.357 0.278277 292.479 0.30957C292.534 0.323369 292.587 0.339816 292.641 0.354492C292.74 0.381565 292.839 0.408456 292.937 0.438477C293.008 0.460515 293.079 0.485186 293.15 0.508789C293.232 0.535768 293.313 0.561825 293.394 0.59082C293.456 0.613327 293.517 0.638404 293.579 0.662109C293.674 0.698492 293.769 0.734274 293.862 0.773438C293.904 0.791078 293.945 0.810904 293.987 0.829102C294.092 0.874657 294.196 0.920733 294.299 0.969727C294.346 0.992427 294.393 1.01661 294.44 1.04004C294.532 1.08561 294.624 1.1314 294.714 1.17969C294.776 1.21315 294.838 1.24846 294.899 1.2832C294.971 1.32361 295.043 1.36414 295.113 1.40625C295.183 1.44783 295.252 1.49096 295.32 1.53418C295.39 1.57829 295.46 1.62218 295.529 1.66797C295.586 1.70584 295.642 1.74518 295.698 1.78418C295.769 1.83312 295.839 1.88193 295.908 1.93262C295.972 1.97924 296.034 2.02712 296.097 2.0752C296.159 2.12332 296.221 2.17213 296.282 2.22168C296.341 2.26924 296.399 2.31735 296.457 2.36621C296.523 2.4223 296.589 2.47935 296.653 2.53711C296.706 2.58392 296.758 2.63082 296.81 2.67871C296.869 2.73362 296.927 2.7894 296.984 2.8457C297.045 2.90489 297.105 2.96469 297.164 3.02539C297.215 3.0772 297.264 3.12973 297.313 3.18262C297.368 3.24144 297.422 3.30119 297.476 3.36133C297.527 3.41877 297.577 3.47655 297.627 3.53516C297.682 3.60056 297.737 3.66656 297.791 3.7334C297.834 3.7863 297.875 3.83978 297.917 3.89355C297.971 3.96326 298.024 4.03335 298.076 4.10449C298.117 4.16084 298.157 4.21815 298.197 4.27539C298.246 4.34521 298.295 4.41522 298.342 4.48633C298.383 4.54918 298.424 4.61292 298.464 4.67676C298.508 4.74636 298.552 4.81598 298.594 4.88672C298.637 4.95996 298.68 5.03396 298.722 5.1084C298.757 5.17086 298.791 5.2336 298.825 5.29688C298.867 5.37555 298.907 5.45524 298.947 5.53516C298.978 5.59581 299.008 5.65643 299.037 5.71777C299.077 5.80129 299.114 5.88594 299.151 5.9707C299.179 6.03375 299.208 6.09643 299.234 6.16016C299.267 6.23805 299.298 6.31664 299.328 6.39551C299.356 6.4679 299.385 6.54009 299.411 6.61328C299.438 6.68691 299.462 6.76152 299.486 6.83594C299.513 6.91699 299.54 6.99811 299.565 7.08008C299.584 7.14251 299.601 7.20562 299.619 7.26855C299.645 7.36133 299.673 7.454 299.696 7.54785C299.713 7.61515 299.728 7.68315 299.743 7.75098C299.763 7.83634 299.783 7.92163 299.801 8.00781C299.821 8.10936 299.838 8.21182 299.855 8.31445C299.866 8.37625 299.878 8.43782 299.888 8.5C299.894 8.5428 299.898 8.58593 299.904 8.62891C299.921 8.75101 299.937 8.8736 299.949 8.99707C299.952 9.02468 299.954 9.05241 299.956 9.08008C299.969 9.21963 299.98 9.35983 299.987 9.50098C299.995 9.6663 300 9.83266 300 10V364L299.987 364.515C299.728 369.628 295.628 373.728 290.515 373.987L290 374H10C4.47716 374 0 369.523 0 364V10C4.05894e-06 4.47716 4.47716 2.81863e-07 10 0H290L290.515 0.0126953ZM1 29V364C1 368.971 5.02944 373 10 373H290C294.971 373 299 368.971 299 364V29H1Z" fill="url(#paint0_linear_621_1908)"/>
<defs>
<linearGradient id="paint0_linear_621_1908" x1="-26" y1="-17.5705" x2="273.904" y2="143.533" gradientUnits="userSpaceOnUse">
<stop stop-color="#03D75C"/>
<stop offset="1" stop-color="#4547BB"/>
</linearGradient>
</defs>
</svg>
