<svg width="1305" height="535" viewBox="0 0 1305 535" fill="none" xmlns="http://www.w3.org/2000/svg">
<path d="M1273 0C1290.67 0 1305 14.3269 1305 32V455C1305 472.397 1291.12 486.551 1273.83 486.989L1273 487H978C962.696 487 949.064 494.163 940.274 505.318L939.241 506.625C928.479 520.173 915.121 535 898 535H32C14.327 535 0 520.673 0 503V80C0 62.6031 13.8825 48.4489 31.1738 48.0107L32 48H477C492.065 48 505.509 41.0598 514.31 30.2021L514.726 29.6816C525.492 16.0164 538.901 0.493306 556.175 0.0117188L557 0H1273ZM32 53C17.0883 53 5 65.0883 5 80V482H1273C1287.91 482 1300 469.912 1300 455V53H32Z" fill="url(#paint0_linear_408_959)"/>
<defs>
<linearGradient id="paint0_linear_408_959" x1="-2.40506e-06" y1="268" x2="1305" y2="268" gradientUnits="userSpaceOnUse">
<stop stop-color="#4547BB"/>
<stop offset="1" stop-color="#03D75C"/>
</linearGradient>
</defs>
</svg>
