<svg width="300" height="175" viewBox="0 0 300 175" fill="none" xmlns="http://www.w3.org/2000/svg">
<path d="M15 175C6.71573 175 0 168.284 0 160V15C0 12.0406 2.71881 10.1227 5.66602 10.0059L5.95117 10H155C160.041 10 164.819 8.86942 169.092 6.84766C175.928 3.61325 182.928 0 190.491 0H285C293.284 0 300 6.71573 300 15V160C300 168.284 293.284 175 285 175H15ZM285 174C292.732 174 299 167.732 299 160V15C299 7.26802 292.732 1 285 1H190.491C183.203 1 176.432 4.48035 169.52 7.75098C165.115 9.83469 160.193 11 155 11H5.95117C3.20981 11.0001 1 12.7097 1 15V160C1 167.611 7.07367 173.803 14.6387 173.995L15 174H285Z" fill="url(#paint0_linear_621_2037)"/>
<defs>
<linearGradient id="paint0_linear_621_2037" x1="-81" y1="87.3261" x2="297.157" y2="87.3261" gradientUnits="userSpaceOnUse">
<stop stop-color="#03D75C"/>
<stop offset="1" stop-color="#4547BB"/>
</linearGradient>
</defs>
</svg>
