<svg width="670" height="429" viewBox="0 0 670 429" fill="none" xmlns="http://www.w3.org/2000/svg">
<mask id="path-1-inside-1_413_6749" fill="white">
<path d="M30 0C13.4315 8.05325e-06 0 13.4315 0 30V354C0 369.464 12.536 382 28 382H236C255.778 382 273.203 392.073 283.425 407.369C290.971 418.662 302.023 429 315.605 429H640C656.569 429 670 415.569 670 399V30C670 13.4315 656.569 0 640 0H30Z"/>
</mask>
<path d="M30 0C13.4315 8.05325e-06 0 13.4315 0 30V354C0 369.464 12.536 382 28 382H236C255.778 382 273.203 392.073 283.425 407.369C290.971 418.662 302.023 429 315.605 429H640C656.569 429 670 415.569 670 399V30C670 13.4315 656.569 0 640 0H30Z" fill="#747373"/>
<path d="M30 0V-5V0ZM640 429L640 434H640V429ZM670 30H675H670ZM283.425 407.369L287.582 404.591L283.425 407.369ZM30 0V5C16.1929 5.00001 5 16.1929 5 30H0H-5C-5 10.67 10.67 -4.99999 30 -5V0ZM0 30H5V354H0H-5V30H0ZM28 382V377H236V382V387H28V382ZM236 382V377C257.518 377 276.472 387.966 287.582 404.591L283.425 407.369L279.268 410.147C269.934 396.181 254.038 387 236 387V382ZM315.605 429V424H640V429V434H315.605V429ZM640 429L640 424C653.807 424 665 412.807 665 399H670H675C675 418.33 659.33 434 640 434L640 429ZM670 399H665V30H670H675V399H670ZM670 30H665C665 16.1929 653.807 5 640 5V0V-5C659.33 -5 675 10.67 675 30H670ZM640 0V5H30V0V-5H640V0ZM283.425 407.369L287.582 404.591C294.895 415.534 304.642 424 315.605 424V429V434C299.405 434 287.048 421.789 279.268 410.147L283.425 407.369ZM0 354H5C5 366.703 15.2974 377 28 377V382V387C9.7746 387 -5 372.225 -5 354H0Z" fill="url(#paint0_linear_413_6749)" mask="url(#path-1-inside-1_413_6749)"/>
<defs>
<linearGradient id="paint0_linear_413_6749" x1="670" y1="214.5" x2="0" y2="214.5" gradientUnits="userSpaceOnUse">
<stop stop-color="#4547BB"/>
<stop offset="1" stop-color="#03D75C"/>
</linearGradient>
</defs>
</svg>
