<svg width="1095" height="510" viewBox="0 0 1095 510" fill="none" xmlns="http://www.w3.org/2000/svg">
<mask id="path-1-inside-1_410_6717" fill="white">
<path d="M713.515 0.960307C713.515 0.937379 713.534 0.919221 713.557 0.920676C714.365 0.972036 715.179 1.00098 716 1.00098H872.895C898.102 1.00106 920.325 13.7778 933.441 33.208C944.047 48.9184 959.294 63.8086 978.249 63.8086H1072.87C1085.02 63.8086 1094.87 73.6583 1094.87 85.8086V484C1094.87 498.359 1083.23 510 1068.87 510H26C11.6407 510 0.000142261 498.359 0 484V85.8086C0 73.6583 9.84974 63.8086 22 63.8086H116.54C135.495 63.8086 150.742 48.9184 161.348 33.208C174.464 13.7778 196.687 1.00104 221.895 1.00098H378.789C378.814 1.00098 378.839 1.00005 378.864 1H713.475C713.497 1 713.515 0.982229 713.515 0.960307Z"/>
</mask>
<path d="M713.515 0.960307C713.515 0.937379 713.534 0.919221 713.557 0.920676C714.365 0.972036 715.179 1.00098 716 1.00098H872.895C898.102 1.00106 920.325 13.7778 933.441 33.208C944.047 48.9184 959.294 63.8086 978.249 63.8086H1072.87C1085.02 63.8086 1094.87 73.6583 1094.87 85.8086V484C1094.87 498.359 1083.23 510 1068.87 510H26C11.6407 510 0.000142261 498.359 0 484V85.8086C0 73.6583 9.84974 63.8086 22 63.8086H116.54C135.495 63.8086 150.742 48.9184 161.348 33.208C174.464 13.7778 196.687 1.00104 221.895 1.00098H378.789C378.814 1.00098 378.839 1.00005 378.864 1H713.475C713.497 1 713.515 0.982229 713.515 0.960307Z" fill="#191933"/>
<path d="M872.895 1.00098V-3.99902V1.00098ZM933.441 33.208L929.297 36.0056V36.0056L933.441 33.208ZM1094.87 484L1099.87 484V484H1094.87ZM0 484H-5V484L0 484ZM116.54 63.8086V68.8086H116.54L116.54 63.8086ZM161.348 33.208L165.492 36.0056L165.492 36.0056L161.348 33.208ZM221.895 1.00098V-3.99902H221.895L221.895 1.00098ZM378.789 1.00098V6.00098H378.789L378.789 1.00098ZM378.864 1V-4.00001L378.855 -3.99999L378.864 1ZM713.557 0.920676L713.24 5.9106L713.557 0.920676ZM713.557 0.920676L713.24 5.9106C714.141 5.9679 715.062 6.00098 716 6.00098V1.00098V-3.99902C715.297 -3.99902 714.589 -4.02383 713.874 -4.06925L713.557 0.920676ZM716 1.00098V6.00098H872.895V1.00098V-3.99902H716V1.00098ZM872.895 1.00098V6.00098C896.37 6.00105 917.07 17.8936 929.297 36.0056L933.441 33.208L937.586 30.4104C923.579 9.66205 899.833 -3.99894 872.895 -3.99902V1.00098ZM933.441 33.208L929.297 36.0056C940.059 51.9475 956.612 68.8086 978.249 68.8086V63.8086V58.8086C961.976 58.8086 948.035 45.8893 937.586 30.4104L933.441 33.208ZM978.249 63.8086V68.8086H1072.87V63.8086V58.8086H978.249V63.8086ZM1094.87 85.8086H1089.87V484H1094.87H1099.87V85.8086H1094.87ZM1094.87 484L1089.87 484C1089.87 495.598 1080.47 505 1068.87 505V510V515C1085.99 515 1099.87 501.121 1099.87 484L1094.87 484ZM1068.87 510V505H26V510V515H1068.87V510ZM26 510V505C14.4022 505 5.00011 495.598 5 484L0 484L-5 484C-4.99983 501.121 8.87921 515 26 515V510ZM0 484H5V85.8086H0H-5V484H0ZM22 63.8086V68.8086H116.54V63.8086V58.8086H22V63.8086ZM116.54 63.8086L116.54 68.8086C138.177 68.8086 154.73 51.9476 165.492 36.0056L161.348 33.208L157.204 30.4104C146.754 45.8893 132.813 58.8086 116.54 58.8086L116.54 63.8086ZM161.348 33.208L165.492 36.0056C177.719 17.8936 198.419 6.00103 221.895 6.00098L221.895 1.00098L221.895 -3.99902C194.956 -3.99896 171.21 9.66197 157.204 30.4105L161.348 33.208ZM221.895 1.00098V6.00098H378.789V1.00098V-3.99902H221.895V1.00098ZM378.789 1.00098L378.789 6.00098C378.826 6.00097 378.857 6.00064 378.878 6.00034C378.898 6.00005 378.916 5.99971 378.922 5.99961C378.931 5.99943 378.926 5.99953 378.92 5.99961C378.913 5.99972 378.896 5.99995 378.874 5.99999L378.864 1L378.855 -3.99999C378.82 -3.99992 378.79 -3.99956 378.771 -3.99927C378.752 -3.99899 378.735 -3.99866 378.732 -3.99859C378.725 -3.99846 378.73 -3.99857 378.738 -3.99868C378.747 -3.9988 378.765 -3.99902 378.789 -3.99902L378.789 1.00098ZM378.864 1V6H713.475V1V-4H378.864V1ZM713.475 1V6C716.258 6 718.515 3.74382 718.515 0.960307H713.515H708.515C708.515 -1.77937 710.736 -4 713.475 -4V1ZM0 85.8086H5C5 76.4197 12.6112 68.8086 22 68.8086V63.8086V58.8086C7.08832 58.8086 -5 70.8969 -5 85.8086H0ZM1072.87 63.8086V68.8086C1082.26 68.8086 1089.87 76.4198 1089.87 85.8086H1094.87H1099.87C1099.87 70.8969 1087.79 58.8086 1072.87 58.8086V63.8086ZM713.557 0.920676L713.874 -4.06925C710.973 -4.25368 708.515 -1.95146 708.515 0.960307H713.515H718.515C718.515 3.82622 716.095 6.09212 713.24 5.9106L713.557 0.920676Z" fill="url(#paint0_linear_410_6717)" mask="url(#path-1-inside-1_410_6717)"/>
<defs>
<linearGradient id="paint0_linear_410_6717" x1="-4.28539e-06" y1="256.082" x2="1094.87" y2="256.082" gradientUnits="userSpaceOnUse">
<stop stop-color="#4547BB"/>
<stop offset="0.403846" stop-color="#03D75C"/>
<stop offset="0.596154" stop-color="#03D75C"/>
<stop offset="1" stop-color="#4547BB"/>
</linearGradient>
</defs>
</svg>
