<svg width="300" height="196" viewBox="0 0 300 196" fill="none" xmlns="http://www.w3.org/2000/svg">
<mask id="path-1-inside-1_621_2081" fill="white">
<path d="M291 0C295.971 0 300 4.02944 300 9V173C300 178.523 295.523 183 290 183H164C155.631 183 148.064 186.427 142.622 191.955C140.315 194.299 137.316 196 134.027 196H9C4.02953 196 0.000148377 191.97 0 187V9C3.49223e-06 4.02944 4.02944 0 9 0H291Z"/>
</mask>
<path d="M291 0C295.971 0 300 4.02944 300 9V173C300 178.523 295.523 183 290 183H164C155.631 183 148.064 186.427 142.622 191.955C140.315 194.299 137.316 196 134.027 196H9C4.02953 196 0.000148377 191.97 0 187V9C3.49223e-06 4.02944 4.02944 0 9 0H291Z" fill="#191933"/>
<path d="M164 183V181V183ZM0 187H-2V187L0 187ZM0 9L-2 9V9H0ZM142.622 191.955L141.197 190.552L142.622 191.955ZM291 0V2C294.866 2 298 5.13401 298 9H300H302C302 2.92487 297.075 -2 291 -2V0ZM300 9H298V173H300H302V9H300ZM290 183V181H164V183V185H290V183ZM164 183V181C155.073 181 146.999 184.658 141.197 190.552L142.622 191.955L144.048 193.358C149.128 188.197 156.189 185 164 185V183ZM134.027 196V194H9V196V198H134.027V196ZM9 196V194C5.13416 194 2.00012 190.866 2 187L0 187L-2 187C-1.99982 193.075 2.9249 198 9 198V196ZM0 187H2V9H0H-2V187H0ZM0 9L2 9C2 5.13401 5.13401 2 9 2V0V-2C2.92487 -2 -2 2.92487 -2 9L0 9ZM9 0V2H291V0V-2H9V0ZM142.622 191.955L141.197 190.552C139.127 192.655 136.61 194 134.027 194V196V198C138.021 198 141.503 195.943 144.048 193.358L142.622 191.955ZM300 173H298C298 177.418 294.418 181 290 181V183V185C296.627 185 302 179.627 302 173H300Z" fill="url(#paint0_linear_621_2081)" mask="url(#path-1-inside-1_621_2081)"/>
<defs>
<linearGradient id="paint0_linear_621_2081" x1="7.96119e-07" y1="98.27" x2="300" y2="98.27" gradientUnits="userSpaceOnUse">
<stop stop-color="#4547BB"/>
<stop offset="1" stop-color="#03D75C"/>
</linearGradient>
</defs>
</svg>
