<svg width="300" height="196" viewBox="0 0 300 196" fill="none" xmlns="http://www.w3.org/2000/svg">
<mask id="path-1-inside-1_621_2087" fill="white">
<path d="M9 196C4.02945 196 0 191.971 0 187V23C0 17.4772 4.47714 13 10 13H136C144.369 13 151.936 9.57254 157.378 4.04529C159.685 1.70122 162.684 0 165.973 0H291C295.97 0 300 4.02956 300 9V187C300 191.971 295.971 196 291 196H9Z"/>
</mask>
<path d="M9 196C4.02945 196 0 191.971 0 187V23C0 17.4772 4.47714 13 10 13H136C144.369 13 151.936 9.57254 157.378 4.04529C159.685 1.70122 162.684 0 165.973 0H291C295.97 0 300 4.02956 300 9V187C300 191.971 295.971 196 291 196H9Z" fill="#191933"/>
<path d="M136 13V15V13ZM300 9H302V8.99994L300 9ZM300 187L302 187V187H300ZM157.378 4.04529L158.803 5.44836L157.378 4.04529ZM9 196V194C5.134 194 2 190.866 2 187H0H-2C-2 193.075 2.92487 198 9 198V196ZM0 187H2V23H0H-2V187H0ZM10 13V15H136V13V11H10V13ZM136 13V15C144.927 15 153.001 11.3417 158.803 5.44836L157.378 4.04529L155.952 2.64221C150.872 7.80338 143.811 11 136 11V13ZM165.973 0V2H291V0V-2H165.973V0ZM291 0V2C294.866 2 298 5.13409 298 9.00006L300 9L302 8.99994C302 2.92503 297.075 -2 291 -2V0ZM300 9H298V187H300H302V9H300ZM300 187L298 187C298 190.866 294.866 194 291 194V196V198C297.075 198 302 193.075 302 187L300 187ZM291 196V194H9V196V198H291V196ZM157.378 4.04529L158.803 5.44836C160.873 3.34549 163.39 2 165.973 2V0V-2C161.979 -2 158.497 0.0569458 155.952 2.64221L157.378 4.04529ZM0 23H2C2 18.5817 5.58173 15 10 15V13V11C3.37259 11 -2 16.3726 -2 23H0Z" fill="url(#paint0_linear_621_2087)" mask="url(#path-1-inside-1_621_2087)"/>
<defs>
<linearGradient id="paint0_linear_621_2087" x1="300" y1="97.73" x2="-7.96119e-07" y2="97.73" gradientUnits="userSpaceOnUse">
<stop stop-color="#4547BB"/>
<stop offset="1" stop-color="#03D75C"/>
</linearGradient>
</defs>
</svg>
