<svg width="670" height="429" viewBox="0 0 670 429" fill="none" xmlns="http://www.w3.org/2000/svg">
<mask id="path-1-inside-1_413_6731" fill="white">
<path d="M640 0C656.569 8.05325e-06 670 13.4315 670 30V354C670 369.464 657.464 382 642 382H434C414.222 382 396.797 392.073 386.575 407.369C379.029 418.662 367.977 429 354.395 429H30C13.4315 429 0 415.569 0 399V30C1.54632e-06 13.4315 13.4315 0 30 0H640Z"/>
</mask>
<path d="M640 0C656.569 8.05325e-06 670 13.4315 670 30V354C670 369.464 657.464 382 642 382H434C414.222 382 396.797 392.073 386.575 407.369C379.029 418.662 367.977 429 354.395 429H30C13.4315 429 0 415.569 0 399V30C1.54632e-06 13.4315 13.4315 0 30 0H640Z" fill="#191933"/>
<path d="M640 0V-5V0ZM30 429L30 434H30V429ZM0 30H-5H0ZM386.575 407.369L382.418 404.591L386.575 407.369ZM640 0V5C653.807 5.00001 665 16.1929 665 30H670H675C675 10.67 659.33 -4.99999 640 -5V0ZM670 30H665V354H670H675V30H670ZM642 382V377H434V382V387H642V382ZM434 382V377C412.482 377 393.528 387.966 382.418 404.591L386.575 407.369L390.732 410.147C400.066 396.181 415.962 387 434 387V382ZM354.395 429V424H30V429V434H354.395V429ZM30 429L30 424C16.1929 424 5 412.807 5 399H0H-5C-5 418.33 10.67 434 30 434L30 429ZM0 399H5V30H0H-5V399H0ZM0 30H5C5 16.1929 16.1929 5 30 5V0V-5C10.67 -5 -5 10.67 -5 30H0ZM30 0V5H640V0V-5H30V0ZM386.575 407.369L382.418 404.591C375.105 415.534 365.358 424 354.395 424V429V434C370.595 434 382.952 421.789 390.732 410.147L386.575 407.369ZM670 354H665C665 366.703 654.703 377 642 377V382V387C660.225 387 675 372.225 675 354H670Z" fill="url(#paint0_linear_413_6731)" mask="url(#path-1-inside-1_413_6731)"/>
<defs>
<linearGradient id="paint0_linear_413_6731" x1="0" y1="214.5" x2="670" y2="214.5" gradientUnits="userSpaceOnUse">
<stop stop-color="#4547BB"/>
<stop offset="1" stop-color="#03D75C"/>
</linearGradient>
</defs>
</svg>
