<svg width="460" height="363" viewBox="0 0 460 363" fill="none" xmlns="http://www.w3.org/2000/svg">
<mask id="path-1-inside-1_318_1283" fill="white">
<path d="M438 0C450.15 0 460 9.84974 460 22V279C460 300.539 442.539 318 421 318H229C212.491 318 197.594 324.897 187.032 335.967C174.478 349.124 159.569 363 141.384 363H22C9.84974 363 0 353.15 0 341V22C0 9.84974 9.84974 0 22 0H438Z"/>
</mask>
<path d="M22 363L22 368H22V363ZM438 0V5C447.389 5 455 12.6112 455 22H460H465C465 7.08831 452.912 -5 438 -5V0ZM460 22H455V279H460H465V22H460ZM421 318V313H229V318V323H421V318ZM229 318V313C211.069 313 194.881 320.498 183.414 332.515L187.032 335.967L190.649 339.419C200.307 329.296 213.914 323 229 323V318ZM141.384 363V358H22V363V368H141.384V363ZM22 363L22 358C12.6112 358 5 350.389 5 341H0H-5C-5 355.912 7.08832 368 22 368L22 363ZM0 341H5V22H0H-5V341H0ZM0 22H5C5 12.6112 12.6112 5 22 5V0V-5C7.08831 -5 -5 7.08831 -5 22H0ZM22 0V5H438V0V-5H22V0ZM187.032 335.967L183.414 332.515C177.171 339.058 170.616 345.481 163.521 350.274C156.458 355.045 149.153 358 141.384 358V363V368C151.8 368 161.042 364.017 169.119 358.56C177.163 353.126 184.339 346.032 190.649 339.419L187.032 335.967ZM460 279H455C455 297.778 439.778 313 421 313V318V323C445.301 323 465 303.301 465 279H460Z" fill="url(#paint0_linear_318_1283)" mask="url(#path-1-inside-1_318_1283)"/>
<defs>
<linearGradient id="paint0_linear_318_1283" x1="1.22071e-06" y1="182" x2="460" y2="182" gradientUnits="userSpaceOnUse">
<stop stop-color="#4547BB"/>
<stop offset="1" stop-color="#03D75C"/>
</linearGradient>
</defs>
</svg>
