<svg width="783" height="377" viewBox="0 0 783 377" fill="none" xmlns="http://www.w3.org/2000/svg">
<mask id="path-1-inside-1_621_4779" fill="white">
<path d="M761 377C773.15 377 783 367.15 783 355V22C783 9.84973 773.15 0 761 0H22C9.84974 0 0 9.84973 0 22V293.933C0 308.844 12.0883 320.933 27 320.933H419C443.913 320.933 465.602 334.736 476.836 355.112C483.284 366.808 494.132 377 507.487 377H761Z"/>
</mask>
<path d="M476.836 355.112L481.215 352.698L476.836 355.112ZM761 377V372C770.389 372 778 364.389 778 355H783H788C788 369.912 775.912 382 761 382V377ZM783 355H778V22H783H788V355H783ZM783 22H778C778 12.6112 770.389 5 761 5V0V-5C775.912 -5 788 7.08831 788 22H783ZM761 0V5H22V0V-5H761V0ZM22 0V5C12.6112 5 5 12.6112 5 22H0H-5C-5 7.08831 7.08831 -5 22 -5V0ZM0 22H5V293.933H0H-5V22H0ZM27 320.933V315.933H419V320.933V325.933H27V320.933ZM419 320.933V315.933C445.807 315.933 469.136 330.791 481.215 352.698L476.836 355.112L472.457 357.527C462.067 338.681 442.019 325.933 419 325.933V320.933ZM507.487 377V372H761V377V382H507.487V377ZM476.836 355.112L481.215 352.698C487.297 363.731 496.814 372 507.487 372V377V382C491.449 382 479.272 369.886 472.457 357.527L476.836 355.112ZM0 293.933H5C5 306.083 14.8497 315.933 27 315.933V320.933V325.933C9.32689 325.933 -5 311.606 -5 293.933H0Z" fill="url(#paint0_linear_621_4779)" mask="url(#path-1-inside-1_621_4779)"/>
<defs>
<linearGradient id="paint0_linear_621_4779" x1="783" y1="189" x2="2.9275e-06" y2="189" gradientUnits="userSpaceOnUse">
<stop stop-color="#4547BB"/>
<stop offset="1" stop-color="#03D75C"/>
</linearGradient>
</defs>
</svg>
