<svg width="752" height="410" viewBox="0 0 752 410" fill="none" xmlns="http://www.w3.org/2000/svg">
<mask id="path-1-inside-1_621_4782" fill="white">
<path d="M730 0C742.15 0 752 9.84974 752 22V388C752 400.15 742.15 410 730 410H22C9.84974 410 0 400.15 0 388V87.9746C0 73.0629 12.0883 60.9746 27 60.9746H312.245C338.272 60.9745 360.781 45.9087 371.526 24.0223C377.751 11.3426 388.975 0 403.1 0H730Z"/>
</mask>
<path d="M730 0C742.15 0 752 9.84974 752 22V388C752 400.15 742.15 410 730 410H22C9.84974 410 0 400.15 0 388V87.9746C0 73.0629 12.0883 60.9746 27 60.9746H312.245C338.272 60.9745 360.781 45.9087 371.526 24.0223C377.751 11.3426 388.975 0 403.1 0H730Z" fill="url(#paint0_linear_621_4782)" fill-opacity="0.41"/>
<path d="M22 410L22 415H22V410ZM312.245 60.9746L312.245 65.9746L312.245 65.9746L312.245 60.9746ZM371.526 24.0223L367.037 21.8188L371.526 24.0223ZM730 0V5C739.389 5 747 12.6112 747 22H752H757C757 7.08831 744.912 -5 730 -5V0ZM752 22H747V388H752H757V22H752ZM752 388H747C747 397.389 739.389 405 730 405V410V415C744.912 415 757 402.912 757 388H752ZM730 410V405H22V410V415H730V410ZM22 410L22 405C12.6112 405 5 397.389 5 388H0H-5C-5 402.912 7.08832 415 22 415L22 410ZM0 388H5V87.9746H0H-5V388H0ZM27 60.9746V65.9746H312.245V60.9746V55.9746H27V60.9746ZM312.245 60.9746L312.245 65.9746C340.251 65.9745 364.461 49.7582 376.014 26.2258L371.526 24.0223L367.037 21.8188C357.101 42.0592 336.293 55.9745 312.245 55.9746L312.245 60.9746ZM403.1 0V5H730V0V-5H403.1V0ZM371.526 24.0223L376.014 26.2258C381.908 14.2198 391.814 5 403.1 5V0V-5C386.135 -5 373.593 8.46536 367.037 21.8188L371.526 24.0223ZM0 87.9746H5C5 75.8243 14.8497 65.9746 27 65.9746V60.9746V55.9746C9.32689 55.9746 -5 70.3015 -5 87.9746H0Z" fill="url(#paint1_linear_621_4782)" mask="url(#path-1-inside-1_621_4782)"/>
<defs>
<linearGradient id="paint0_linear_621_4782" x1="376" y1="0" x2="376" y2="410" gradientUnits="userSpaceOnUse">
<stop stop-color="#4547BB"/>
<stop offset="1" stop-color="#191933"/>
</linearGradient>
<linearGradient id="paint1_linear_621_4782" x1="752" y1="205" x2="-1.86245e-06" y2="205" gradientUnits="userSpaceOnUse">
<stop stop-color="#4547BB"/>
<stop offset="1" stop-color="#03D75C"/>
</linearGradient>
</defs>
</svg>
