<svg width="300" height="126" viewBox="0 0 300 126" fill="none" xmlns="http://www.w3.org/2000/svg">
<mask id="path-1-inside-1_612_1862" fill="white">
<path d="M9 126C4.02945 126 0 121.971 0 117V26C0 20.4771 4.47714 16 10 16H184C193.354 16 201.706 11.7186 207.207 5.00923C209.557 2.14325 212.856 0 216.562 0H291C295.971 0 300 4.02952 300 9V117C300 121.971 295.971 126 291 126H9Z"/>
</mask>
<path d="M9 126C4.02945 126 0 121.971 0 117V26C0 20.4771 4.47714 16 10 16H184C193.354 16 201.706 11.7186 207.207 5.00923C209.557 2.14325 212.856 0 216.562 0H291C295.971 0 300 4.02952 300 9V117C300 121.971 295.971 126 291 126H9Z" fill="white" fill-opacity="0.37"/>
<path d="M0 117H-2H0ZM184 16V18V16ZM300 9H302V8.99996L300 9ZM300 117L302 117V117H300ZM9 126V124C5.134 124 2 120.866 2 117H0H-2C-2 123.075 2.92487 128 9 128V126ZM0 117H2V26H0H-2V117H0ZM10 16V18H184V16V14H10V16ZM184 16V18C193.978 18 202.889 13.43 208.754 6.27734L207.207 5.00923L205.661 3.74113C200.523 10.0072 192.729 14 184 14V16ZM216.562 0V2H291V0V-2H216.562V0ZM291 0V2C294.866 2 298 5.13406 298 9.00004L300 9L302 8.99996C302 2.92498 297.075 -2 291 -2V0ZM300 9H298V117H300H302V9H300ZM300 117L298 117C298 120.866 294.866 124 291 124V126V128C297.075 128 302 123.075 302 117L300 117ZM291 126V124H9V126V128H291V126ZM207.207 5.00923L208.754 6.27734C210.87 3.69678 213.652 2 216.562 2V0V-2C212.059 -2 208.245 0.589714 205.661 3.74113L207.207 5.00923ZM0 26H2C2 21.5817 5.58173 18 10 18V16V14C3.37259 14 -2 19.3726 -2 26H0Z" fill="url(#paint0_linear_612_1862)" mask="url(#path-1-inside-1_612_1862)"/>
<defs>
<linearGradient id="paint0_linear_612_1862" x1="300" y1="62.8264" x2="-7.96116e-07" y2="62.8264" gradientUnits="userSpaceOnUse">
<stop stop-color="#4547BB"/>
<stop offset="1" stop-color="#03D75C"/>
</linearGradient>
</defs>
</svg>
